<svg width="449" height="962" viewBox="0 0 449 962" fill="none" xmlns="http://www.w3.org/2000/svg">
<rect width="440" height="962" transform="translate(1)" fill="white"/>
<rect width="440" height="962" transform="translate(1)" fill="url(#paint0_linear_1_118)"/>
<g filter="url(#filter0_dd_1_118)">
<path d="M182 232C182 209.909 199.909 192 222 192C244.091 192 262 209.909 262 232C262 254.091 244.091 272 222 272C199.909 272 182 254.091 182 232Z" fill="white" shape-rendering="crispEdges"/>
<path d="M212 227C214.761 227 217 224.761 217 222C217 219.239 214.761 217 212 217C209.239 217 207 219.239 207 222C207 224.761 209.239 227 212 227Z" stroke="#DBABBE" stroke-width="3.33333" stroke-linecap="round" stroke-linejoin="round"/>
<path d="M215.533 225.533L222 232" stroke="#DBABBE" stroke-width="3.33333" stroke-linecap="round" stroke-linejoin="round"/>
<path d="M235.333 218.667L215.533 238.467" stroke="#DBABBE" stroke-width="3.33333" stroke-linecap="round" stroke-linejoin="round"/>
<path d="M212 247C214.761 247 217 244.761 217 242C217 239.239 214.761 237 212 237C209.239 237 207 239.239 207 242C207 244.761 209.239 247 212 247Z" stroke="#DBABBE" stroke-width="3.33333" stroke-linecap="round" stroke-linejoin="round"/>
<path d="M226.667 236.667L235.333 245.333" stroke="#DBABBE" stroke-width="3.33333" stroke-linecap="round" stroke-linejoin="round"/>
</g>
<path d="M183.219 303.435V313H180.422V292.36H183.219V301.091H194.382V292.36H197.179V313H194.382V303.435H183.219ZM215.065 305.061C215.065 307.834 214.455 309.899 213.234 311.257C212.013 312.614 210.241 313.293 207.917 313.293C205.602 313.293 203.854 312.59 202.673 311.184C201.491 309.768 200.9 307.727 200.9 305.061C200.9 302.326 201.491 300.275 202.673 298.908C203.864 297.541 205.641 296.857 208.005 296.857C210.426 296.857 212.209 297.526 213.351 298.864C214.494 300.192 215.065 302.258 215.065 305.061ZM212.297 305.061C212.297 302.873 211.969 301.286 211.315 300.3C210.671 299.304 209.582 298.806 208.049 298.806C206.506 298.806 205.387 299.313 204.694 300.329C204.01 301.335 203.669 302.912 203.669 305.061C203.669 307.15 204.006 308.723 204.679 309.777C205.363 310.822 206.432 311.345 207.887 311.345C209.469 311.345 210.597 310.837 211.271 309.821C211.955 308.806 212.297 307.219 212.297 305.061ZM231.764 305.061C231.764 307.834 231.154 309.899 229.933 311.257C228.713 312.614 226.94 313.293 224.616 313.293C222.301 313.293 220.553 312.59 219.372 311.184C218.19 309.768 217.599 307.727 217.599 305.061C217.599 302.326 218.19 300.275 219.372 298.908C220.563 297.541 222.341 296.857 224.704 296.857C227.126 296.857 228.908 297.526 230.05 298.864C231.193 300.192 231.764 302.258 231.764 305.061ZM228.996 305.061C228.996 302.873 228.669 301.286 228.014 300.3C227.37 299.304 226.281 298.806 224.748 298.806C223.205 298.806 222.087 299.313 221.393 300.329C220.71 301.335 220.368 302.912 220.368 305.061C220.368 307.15 220.705 308.723 221.379 309.777C222.062 310.822 223.132 311.345 224.587 311.345C226.169 311.345 227.297 310.837 227.97 309.821C228.654 308.806 228.996 307.219 228.996 305.061ZM237.697 307.36V313H235.06V291.262H237.697V304.841L244.655 297.15H247.746L241.315 303.962L248.083 313H244.992L239.631 305.764L237.697 307.36ZM252.843 294.484C252.843 295.51 252.751 296.374 252.565 297.077C252.38 297.771 252.091 298.43 251.701 299.055H249.899C250.817 297.727 251.276 296.457 251.276 295.246H249.987V292.36H252.843V294.484ZM259.362 291.262V293.781H256.725V291.262H259.362ZM259.362 297.15V313H256.725V297.15H259.362ZM269.513 312.883C268.654 313.117 267.765 313.234 266.847 313.234C265.793 313.234 265.002 312.937 264.474 312.341C263.947 311.735 263.683 310.837 263.683 309.646V299.069H261.852V297.15H263.786L264.562 293.605H266.32V297.15H269.25V299.069H266.32V309.074C266.32 309.836 266.442 310.373 266.686 310.686C266.94 310.988 267.375 311.14 267.99 311.14C268.322 311.14 268.83 311.071 269.513 310.935V312.883Z" fill="#797B84"/>
<path d="M108.32 337.326L103.828 348.333H102.281L97.7891 337.326H99.3594L102.406 345.076C102.531 345.393 102.643 345.716 102.742 346.044C102.846 346.372 102.953 346.698 103.062 347.021C103.167 346.698 103.276 346.359 103.391 346.005C103.505 345.651 103.615 345.341 103.719 345.076L106.75 337.326H108.32ZM115.727 344.099C115.727 345.578 115.401 346.68 114.75 347.404C114.099 348.128 113.154 348.49 111.914 348.49C110.68 348.49 109.747 348.115 109.117 347.365C108.487 346.609 108.172 345.521 108.172 344.099C108.172 342.641 108.487 341.547 109.117 340.818C109.753 340.089 110.701 339.724 111.961 339.724C113.253 339.724 114.203 340.081 114.812 340.794C115.422 341.503 115.727 342.604 115.727 344.099ZM114.25 344.099C114.25 342.932 114.076 342.086 113.727 341.56C113.383 341.029 112.802 340.763 111.984 340.763C111.161 340.763 110.565 341.034 110.195 341.576C109.831 342.112 109.648 342.953 109.648 344.099C109.648 345.214 109.828 346.052 110.188 346.615C110.552 347.172 111.122 347.451 111.898 347.451C112.742 347.451 113.344 347.18 113.703 346.638C114.068 346.096 114.25 345.25 114.25 344.099ZM120.734 348.271C120.276 348.396 119.802 348.458 119.312 348.458C118.75 348.458 118.328 348.299 118.047 347.982C117.766 347.659 117.625 347.18 117.625 346.544V340.904H116.648V339.88H117.68L118.094 337.99H119.031V339.88H120.594V340.904H119.031V346.24C119.031 346.646 119.096 346.932 119.227 347.099C119.362 347.26 119.594 347.341 119.922 347.341C120.099 347.341 120.37 347.305 120.734 347.232V348.271ZM123.375 343.927V348.333H121.969V341.849C121.969 341.552 121.964 341.24 121.953 340.911C121.948 340.583 121.938 340.24 121.922 339.88H123.25C123.26 340.12 123.268 340.336 123.273 340.529C123.284 340.721 123.292 340.891 123.297 341.036C123.302 341.177 123.305 341.297 123.305 341.396C123.31 341.49 123.312 341.56 123.312 341.607H123.344C123.5 341.096 123.672 340.701 123.859 340.419C124.042 340.159 124.25 339.979 124.484 339.88C124.719 339.776 125.008 339.724 125.352 339.724C125.544 339.724 125.734 339.75 125.922 339.802V341.091C125.745 341.039 125.495 341.013 125.172 341.013C124.589 341.013 124.143 341.266 123.836 341.771C123.529 342.271 123.375 342.99 123.375 343.927ZM128.344 344.404C128.344 345.372 128.544 346.12 128.945 346.646C129.346 347.172 129.932 347.435 130.703 347.435C131.312 347.435 131.799 347.313 132.164 347.068C132.534 346.823 132.784 346.513 132.914 346.138L134.148 346.49C133.643 347.823 132.495 348.49 130.703 348.49C129.453 348.49 128.5 348.117 127.844 347.372C127.193 346.628 126.867 345.521 126.867 344.052C126.867 342.656 127.193 341.586 127.844 340.841C128.5 340.096 129.435 339.724 130.648 339.724C131.893 339.724 132.826 340.099 133.445 340.849C134.065 341.599 134.375 342.721 134.375 344.216V344.404H128.344ZM132.922 343.326C132.844 342.435 132.617 341.786 132.242 341.38C131.867 340.969 131.328 340.763 130.625 340.763C129.943 340.763 129.401 340.992 129 341.451C128.604 341.904 128.391 342.529 128.359 343.326H132.922ZM142.781 348.49C141.932 348.49 141.294 348.266 140.867 347.818C140.44 347.37 140.227 346.755 140.227 345.974C140.227 345.099 140.513 344.427 141.086 343.958C141.664 343.49 142.594 343.24 143.875 343.208L145.773 343.177V342.716C145.773 342.029 145.628 341.536 145.336 341.24C145.044 340.943 144.586 340.794 143.961 340.794C143.331 340.794 142.872 340.901 142.586 341.115C142.299 341.328 142.128 341.669 142.07 342.138L140.602 342.005C140.841 340.484 141.971 339.724 143.992 339.724C145.055 339.724 145.854 339.969 146.391 340.458C146.927 340.943 147.195 341.646 147.195 342.568V346.208C147.195 346.625 147.25 346.94 147.359 347.154C147.469 347.362 147.677 347.466 147.984 347.466C148.13 347.466 148.284 347.448 148.445 347.411V348.286C148.268 348.328 148.089 348.359 147.906 348.38C147.724 348.401 147.542 348.411 147.359 348.411C146.839 348.411 146.458 348.276 146.219 348.005C145.984 347.729 145.852 347.299 145.82 346.716H145.773C145.414 347.362 144.995 347.82 144.516 348.091C144.042 348.357 143.464 348.49 142.781 348.49ZM145.773 344.161L144.234 344.193C143.578 344.198 143.078 344.266 142.734 344.396C142.391 344.521 142.128 344.714 141.945 344.974C141.763 345.234 141.672 345.576 141.672 345.997C141.672 346.456 141.794 346.81 142.039 347.06C142.289 347.31 142.643 347.435 143.102 347.435C143.622 347.435 144.081 347.318 144.477 347.083C144.878 346.849 145.193 346.529 145.422 346.122C145.656 345.711 145.773 345.289 145.773 344.857V344.161ZM156.68 344.068C156.68 345.542 156.419 346.648 155.898 347.388C155.383 348.122 154.607 348.49 153.57 348.49C152.268 348.49 151.393 348 150.945 347.021H150.906C150.927 347.057 150.938 347.5 150.938 348.349V351.654H149.531V341.607C149.531 341.174 149.526 340.815 149.516 340.529C149.51 340.237 149.5 340.021 149.484 339.88H150.844C150.849 339.901 150.857 340.003 150.867 340.185C150.883 340.367 150.896 340.565 150.906 340.779C150.917 340.987 150.922 341.141 150.922 341.24H150.953C151.203 340.719 151.534 340.339 151.945 340.099C152.357 339.854 152.898 339.732 153.57 339.732C154.612 339.732 155.391 340.081 155.906 340.779C156.422 341.477 156.68 342.573 156.68 344.068ZM155.203 344.099C155.203 342.922 155.044 342.081 154.727 341.576C154.409 341.07 153.904 340.818 153.211 340.818C152.44 340.818 151.867 341.086 151.492 341.622C151.122 342.154 150.938 343.016 150.938 344.208C150.938 345.318 151.115 346.135 151.469 346.661C151.823 347.188 152.398 347.451 153.195 347.451C153.893 347.451 154.401 347.195 154.719 346.685C155.042 346.169 155.203 345.307 155.203 344.099ZM165.586 344.068C165.586 345.542 165.326 346.648 164.805 347.388C164.289 348.122 163.513 348.49 162.477 348.49C161.174 348.49 160.299 348 159.852 347.021H159.812C159.833 347.057 159.844 347.5 159.844 348.349V351.654H158.438V341.607C158.438 341.174 158.432 340.815 158.422 340.529C158.417 340.237 158.406 340.021 158.391 339.88H159.75C159.755 339.901 159.763 340.003 159.773 340.185C159.789 340.367 159.802 340.565 159.812 340.779C159.823 340.987 159.828 341.141 159.828 341.24H159.859C160.109 340.719 160.44 340.339 160.852 340.099C161.263 339.854 161.805 339.732 162.477 339.732C163.518 339.732 164.297 340.081 164.812 340.779C165.328 341.477 165.586 342.573 165.586 344.068ZM164.109 344.099C164.109 342.922 163.951 342.081 163.633 341.576C163.315 341.07 162.81 340.818 162.117 340.818C161.346 340.818 160.773 341.086 160.398 341.622C160.029 342.154 159.844 343.016 159.844 344.208C159.844 345.318 160.021 346.135 160.375 346.661C160.729 347.188 161.305 347.451 162.102 347.451C162.799 347.451 163.307 347.195 163.625 346.685C163.948 346.169 164.109 345.307 164.109 344.099ZM168.75 336.74V348.333H167.344V336.74H168.75ZM172.305 336.74V338.083H170.898V336.74H172.305ZM172.305 339.88V348.333H170.898V339.88H172.305ZM177.711 348.49C176.529 348.49 175.625 348.117 175 347.372C174.38 346.622 174.07 345.531 174.07 344.099C174.07 342.677 174.383 341.594 175.008 340.849C175.633 340.099 176.529 339.724 177.695 339.724C178.56 339.724 179.276 339.948 179.844 340.396C180.417 340.844 180.776 341.461 180.922 342.247L179.477 342.357C179.404 341.888 179.219 341.516 178.922 341.24C178.625 340.964 178.203 340.826 177.656 340.826C176.911 340.826 176.372 341.073 176.039 341.568C175.706 342.063 175.539 342.896 175.539 344.068C175.539 345.193 175.716 346.026 176.07 346.568C176.424 347.109 176.958 347.38 177.672 347.38C178.172 347.38 178.589 347.245 178.922 346.974C179.26 346.703 179.469 346.286 179.547 345.724L180.969 345.818C180.896 346.359 180.714 346.831 180.422 347.232C180.135 347.633 179.76 347.943 179.297 348.161C178.839 348.38 178.31 348.49 177.711 348.49ZM184.625 348.49C183.776 348.49 183.138 348.266 182.711 347.818C182.284 347.37 182.07 346.755 182.07 345.974C182.07 345.099 182.357 344.427 182.93 343.958C183.508 343.49 184.438 343.24 185.719 343.208L187.617 343.177V342.716C187.617 342.029 187.471 341.536 187.18 341.24C186.888 340.943 186.43 340.794 185.805 340.794C185.174 340.794 184.716 340.901 184.43 341.115C184.143 341.328 183.971 341.669 183.914 342.138L182.445 342.005C182.685 340.484 183.815 339.724 185.836 339.724C186.898 339.724 187.698 339.969 188.234 340.458C188.771 340.943 189.039 341.646 189.039 342.568V346.208C189.039 346.625 189.094 346.94 189.203 347.154C189.312 347.362 189.521 347.466 189.828 347.466C189.974 347.466 190.128 347.448 190.289 347.411V348.286C190.112 348.328 189.932 348.359 189.75 348.38C189.568 348.401 189.385 348.411 189.203 348.411C188.682 348.411 188.302 348.276 188.062 348.005C187.828 347.729 187.695 347.299 187.664 346.716H187.617C187.258 347.362 186.839 347.82 186.359 348.091C185.885 348.357 185.307 348.49 184.625 348.49ZM187.617 344.161L186.078 344.193C185.422 344.198 184.922 344.266 184.578 344.396C184.234 344.521 183.971 344.714 183.789 344.974C183.607 345.234 183.516 345.576 183.516 345.997C183.516 346.456 183.638 346.81 183.883 347.06C184.133 347.31 184.487 347.435 184.945 347.435C185.466 347.435 185.924 347.318 186.32 347.083C186.721 346.849 187.036 346.529 187.266 346.122C187.5 345.711 187.617 345.289 187.617 344.857V344.161ZM194.625 348.271C194.167 348.396 193.693 348.458 193.203 348.458C192.641 348.458 192.219 348.299 191.938 347.982C191.656 347.659 191.516 347.18 191.516 346.544V340.904H190.539V339.88H191.57L191.984 337.99H192.922V339.88H194.484V340.904H192.922V346.24C192.922 346.646 192.987 346.932 193.117 347.099C193.253 347.26 193.484 347.341 193.812 347.341C193.99 347.341 194.26 347.305 194.625 347.232V348.271ZM197.227 336.74V338.083H195.82V336.74H197.227ZM197.227 339.88V348.333H195.82V339.88H197.227ZM206.539 344.099C206.539 345.578 206.214 346.68 205.562 347.404C204.911 348.128 203.966 348.49 202.727 348.49C201.492 348.49 200.56 348.115 199.93 347.365C199.299 346.609 198.984 345.521 198.984 344.099C198.984 342.641 199.299 341.547 199.93 340.818C200.565 340.089 201.513 339.724 202.773 339.724C204.065 339.724 205.016 340.081 205.625 340.794C206.234 341.503 206.539 342.604 206.539 344.099ZM205.062 344.099C205.062 342.932 204.888 342.086 204.539 341.56C204.195 341.029 203.615 340.763 202.797 340.763C201.974 340.763 201.378 341.034 201.008 341.576C200.643 342.112 200.461 342.953 200.461 344.099C200.461 345.214 200.641 346.052 201 346.615C201.365 347.172 201.935 347.451 202.711 347.451C203.555 347.451 204.156 347.18 204.516 346.638C204.88 346.096 205.062 345.25 205.062 344.099ZM209.734 343.435V348.333H208.328V341.685C208.328 341.19 208.323 340.794 208.312 340.497C208.307 340.195 208.297 339.99 208.281 339.88H209.609C209.62 339.979 209.628 340.104 209.633 340.255C209.643 340.406 209.651 340.573 209.656 340.755C209.661 340.938 209.667 341.128 209.672 341.326H209.695C210.018 340.742 210.391 340.331 210.812 340.091C211.24 339.846 211.768 339.724 212.398 339.724C213.326 339.724 214.003 339.961 214.43 340.435C214.862 340.909 215.078 341.664 215.078 342.701V348.333H213.664V342.974C213.664 342.167 213.534 341.604 213.273 341.286C213.013 340.969 212.562 340.81 211.922 340.81C211.245 340.81 210.711 341.042 210.32 341.505C209.93 341.969 209.734 342.612 209.734 343.435ZM227.102 348.333C227.091 348.276 227.078 348.169 227.062 348.013C227.052 347.852 227.042 347.674 227.031 347.482C227.026 347.289 227.023 347.12 227.023 346.974H226.992C226.732 347.516 226.385 347.904 225.953 348.138C225.526 348.372 224.995 348.49 224.359 348.49C223.292 348.49 222.505 348.13 222 347.411C221.5 346.693 221.25 345.604 221.25 344.146C221.25 342.672 221.508 341.568 222.023 340.833C222.544 340.094 223.323 339.724 224.359 339.724C225 339.724 225.534 339.841 225.961 340.076C226.388 340.31 226.732 340.682 226.992 341.193H227.008L226.992 340.247V336.74H228.398V346.591C228.398 347.034 228.401 347.401 228.406 347.693C228.417 347.979 228.43 348.193 228.445 348.333H227.102ZM222.727 344.099C222.727 345.281 222.883 346.128 223.195 346.638C223.508 347.148 224.016 347.404 224.719 347.404C225.516 347.404 226.094 347.128 226.453 346.576C226.812 346.023 226.992 345.167 226.992 344.005C226.992 342.885 226.812 342.065 226.453 341.544C226.094 341.023 225.521 340.763 224.734 340.763C224.026 340.763 223.513 341.026 223.195 341.552C222.883 342.073 222.727 342.922 222.727 344.099ZM231.641 344.404C231.641 345.372 231.841 346.12 232.242 346.646C232.643 347.172 233.229 347.435 234 347.435C234.609 347.435 235.096 347.313 235.461 347.068C235.831 346.823 236.081 346.513 236.211 346.138L237.445 346.49C236.94 347.823 235.792 348.49 234 348.49C232.75 348.49 231.797 348.117 231.141 347.372C230.49 346.628 230.164 345.521 230.164 344.052C230.164 342.656 230.49 341.586 231.141 340.841C231.797 340.096 232.732 339.724 233.945 339.724C235.19 339.724 236.122 340.099 236.742 340.849C237.362 341.599 237.672 342.721 237.672 344.216V344.404H231.641ZM236.219 343.326C236.141 342.435 235.914 341.786 235.539 341.38C235.164 340.969 234.625 340.763 233.922 340.763C233.24 340.763 232.698 340.992 232.297 341.451C231.901 341.904 231.688 342.529 231.656 343.326H236.219ZM250.266 345.997C250.266 346.794 249.964 347.409 249.359 347.841C248.76 348.273 247.919 348.49 246.836 348.49C245.784 348.49 244.971 348.318 244.398 347.974C243.831 347.625 243.461 347.083 243.289 346.349L244.531 346.107C244.651 346.56 244.898 346.893 245.273 347.107C245.648 347.315 246.169 347.419 246.836 347.419C247.549 347.419 248.07 347.31 248.398 347.091C248.732 346.872 248.898 346.544 248.898 346.107C248.898 345.773 248.784 345.503 248.555 345.294C248.326 345.086 247.956 344.914 247.445 344.779C246.841 344.617 246.359 344.484 246 344.38C245.646 344.276 245.372 344.188 245.18 344.115C244.987 344.036 244.833 343.964 244.719 343.896C244.375 343.698 244.107 343.456 243.914 343.169C243.721 342.883 243.625 342.531 243.625 342.115C243.625 341.344 243.898 340.758 244.445 340.357C244.997 339.951 245.799 339.747 246.852 339.747C247.784 339.747 248.523 339.911 249.07 340.24C249.622 340.568 249.971 341.094 250.117 341.818L248.852 341.974C248.773 341.599 248.562 341.313 248.219 341.115C247.88 340.911 247.424 340.81 246.852 340.81C246.216 340.81 245.747 340.906 245.445 341.099C245.143 341.292 244.992 341.583 244.992 341.974C244.992 342.26 245.078 342.497 245.25 342.685C245.422 342.867 245.75 343.018 246.234 343.138C246.885 343.294 247.505 343.466 248.094 343.654C248.682 343.836 249.104 344.018 249.359 344.201C249.656 344.414 249.88 344.667 250.031 344.958C250.188 345.245 250.266 345.591 250.266 345.997ZM257.266 346.888C256.943 347.471 256.568 347.885 256.141 348.13C255.719 348.37 255.193 348.49 254.562 348.49C253.635 348.49 252.956 348.26 252.523 347.802C252.096 347.339 251.883 346.576 251.883 345.513V339.88H253.297V345.24C253.297 346.083 253.427 346.656 253.688 346.958C253.953 347.255 254.404 347.404 255.039 347.404C255.716 347.404 256.25 347.172 256.641 346.708C257.031 346.245 257.227 345.602 257.227 344.779V339.88H258.633V346.529C258.633 347.018 258.635 347.414 258.641 347.716C258.651 348.018 258.664 348.224 258.68 348.333H257.352C257.346 348.307 257.336 348.185 257.32 347.966C257.31 347.747 257.299 347.388 257.289 346.888H257.266ZM262.227 336.74V338.083H260.82V336.74H262.227ZM262.227 339.88V348.333H260.82V339.88H262.227ZM271.258 339.88L268.102 348.333H266.438L263.367 339.88H264.867L266.727 345.38C266.763 345.484 266.826 345.693 266.914 346.005C267.003 346.313 267.12 346.721 267.266 347.232C267.333 347.029 267.398 346.818 267.461 346.599C267.529 346.375 267.594 346.159 267.656 345.951C267.724 345.742 267.786 345.557 267.844 345.396L269.766 339.88H271.258ZM273.789 336.74V338.083H272.383V336.74H273.789ZM273.789 339.88V348.333H272.383V339.88H273.789ZM285.852 348.333C285.841 348.276 285.828 348.169 285.812 348.013C285.802 347.852 285.792 347.674 285.781 347.482C285.776 347.289 285.773 347.12 285.773 346.974H285.742C285.482 347.516 285.135 347.904 284.703 348.138C284.276 348.372 283.745 348.49 283.109 348.49C282.042 348.49 281.255 348.13 280.75 347.411C280.25 346.693 280 345.604 280 344.146C280 342.672 280.258 341.568 280.773 340.833C281.294 340.094 282.073 339.724 283.109 339.724C283.75 339.724 284.284 339.841 284.711 340.076C285.138 340.31 285.482 340.682 285.742 341.193H285.758L285.742 340.247V336.74H287.148V346.591C287.148 347.034 287.151 347.401 287.156 347.693C287.167 347.979 287.18 348.193 287.195 348.333H285.852ZM281.477 344.099C281.477 345.281 281.633 346.128 281.945 346.638C282.258 347.148 282.766 347.404 283.469 347.404C284.266 347.404 284.844 347.128 285.203 346.576C285.562 346.023 285.742 345.167 285.742 344.005C285.742 342.885 285.562 342.065 285.203 341.544C284.844 341.023 284.271 340.763 283.484 340.763C282.776 340.763 282.263 341.026 281.945 341.552C281.633 342.073 281.477 342.922 281.477 344.099ZM290.391 344.404C290.391 345.372 290.591 346.12 290.992 346.646C291.393 347.172 291.979 347.435 292.75 347.435C293.359 347.435 293.846 347.313 294.211 347.068C294.581 346.823 294.831 346.513 294.961 346.138L296.195 346.49C295.69 347.823 294.542 348.49 292.75 348.49C291.5 348.49 290.547 348.117 289.891 347.372C289.24 346.628 288.914 345.521 288.914 344.052C288.914 342.656 289.24 341.586 289.891 340.841C290.547 340.096 291.482 339.724 292.695 339.724C293.94 339.724 294.872 340.099 295.492 340.849C296.112 341.599 296.422 342.721 296.422 344.216V344.404H290.391ZM294.969 343.326C294.891 342.435 294.664 341.786 294.289 341.38C293.914 340.969 293.375 340.763 292.672 340.763C291.99 340.763 291.448 340.992 291.047 341.451C290.651 341.904 290.438 342.529 290.406 343.326H294.969ZM305.914 348.49C304.732 348.49 303.828 348.117 303.203 347.372C302.583 346.622 302.273 345.531 302.273 344.099C302.273 342.677 302.586 341.594 303.211 340.849C303.836 340.099 304.732 339.724 305.898 339.724C306.763 339.724 307.479 339.948 308.047 340.396C308.62 340.844 308.979 341.461 309.125 342.247L307.68 342.357C307.607 341.888 307.422 341.516 307.125 341.24C306.828 340.964 306.406 340.826 305.859 340.826C305.115 340.826 304.576 341.073 304.242 341.568C303.909 342.063 303.742 342.896 303.742 344.068C303.742 345.193 303.919 346.026 304.273 346.568C304.628 347.109 305.161 347.38 305.875 347.38C306.375 347.38 306.792 347.245 307.125 346.974C307.464 346.703 307.672 346.286 307.75 345.724L309.172 345.818C309.099 346.359 308.917 346.831 308.625 347.232C308.339 347.633 307.964 347.943 307.5 348.161C307.042 348.38 306.513 348.49 305.914 348.49ZM312.109 343.927V348.333H310.703V341.849C310.703 341.552 310.698 341.24 310.688 340.911C310.682 340.583 310.672 340.24 310.656 339.88H311.984C311.995 340.12 312.003 340.336 312.008 340.529C312.018 340.721 312.026 340.891 312.031 341.036C312.036 341.177 312.039 341.297 312.039 341.396C312.044 341.49 312.047 341.56 312.047 341.607H312.078C312.234 341.096 312.406 340.701 312.594 340.419C312.776 340.159 312.984 339.979 313.219 339.88C313.453 339.776 313.742 339.724 314.086 339.724C314.279 339.724 314.469 339.75 314.656 339.802V341.091C314.479 341.039 314.229 341.013 313.906 341.013C313.323 341.013 312.878 341.266 312.57 341.771C312.263 342.271 312.109 342.99 312.109 343.927ZM323.148 344.099C323.148 345.578 322.823 346.68 322.172 347.404C321.521 348.128 320.576 348.49 319.336 348.49C318.102 348.49 317.169 348.115 316.539 347.365C315.909 346.609 315.594 345.521 315.594 344.099C315.594 342.641 315.909 341.547 316.539 340.818C317.174 340.089 318.122 339.724 319.383 339.724C320.674 339.724 321.625 340.081 322.234 340.794C322.844 341.503 323.148 342.604 323.148 344.099ZM321.672 344.099C321.672 342.932 321.497 342.086 321.148 341.56C320.805 341.029 320.224 340.763 319.406 340.763C318.583 340.763 317.987 341.034 317.617 341.576C317.253 342.112 317.07 342.953 317.07 344.099C317.07 345.214 317.25 346.052 317.609 346.615C317.974 347.172 318.544 347.451 319.32 347.451C320.164 347.451 320.766 347.18 321.125 346.638C321.49 346.096 321.672 345.25 321.672 344.099ZM328.148 348.49C326.966 348.49 326.062 348.117 325.438 347.372C324.818 346.622 324.508 345.531 324.508 344.099C324.508 342.677 324.82 341.594 325.445 340.849C326.07 340.099 326.966 339.724 328.133 339.724C328.997 339.724 329.714 339.948 330.281 340.396C330.854 340.844 331.214 341.461 331.359 342.247L329.914 342.357C329.841 341.888 329.656 341.516 329.359 341.24C329.062 340.964 328.641 340.826 328.094 340.826C327.349 340.826 326.81 341.073 326.477 341.568C326.143 342.063 325.977 342.896 325.977 344.068C325.977 345.193 326.154 346.026 326.508 346.568C326.862 347.109 327.396 347.38 328.109 347.38C328.609 347.38 329.026 347.245 329.359 346.974C329.698 346.703 329.906 346.286 329.984 345.724L331.406 345.818C331.333 346.359 331.151 346.831 330.859 347.232C330.573 347.633 330.198 347.943 329.734 348.161C329.276 348.38 328.747 348.49 328.148 348.49ZM334.305 341.326C334.607 340.773 334.969 340.37 335.391 340.115C335.818 339.854 336.357 339.724 337.008 339.724C337.924 339.724 338.599 339.964 339.031 340.443C339.469 340.917 339.688 341.669 339.688 342.701V348.333H338.273V342.974C338.273 342.208 338.138 341.656 337.867 341.318C337.602 340.979 337.156 340.81 336.531 340.81C335.87 340.81 335.339 341.039 334.938 341.497C334.542 341.956 334.344 342.573 334.344 343.349V348.333H332.938V336.74H334.344V339.755C334.344 339.964 334.339 340.185 334.328 340.419C334.318 340.648 334.307 340.849 334.297 341.021C334.292 341.188 334.286 341.289 334.281 341.326H334.305ZM342.891 344.404C342.891 345.372 343.091 346.12 343.492 346.646C343.893 347.172 344.479 347.435 345.25 347.435C345.859 347.435 346.346 347.313 346.711 347.068C347.081 346.823 347.331 346.513 347.461 346.138L348.695 346.49C348.19 347.823 347.042 348.49 345.25 348.49C344 348.49 343.047 348.117 342.391 347.372C341.74 346.628 341.414 345.521 341.414 344.052C341.414 342.656 341.74 341.586 342.391 340.841C343.047 340.096 343.982 339.724 345.195 339.724C346.44 339.724 347.372 340.099 347.992 340.849C348.612 341.599 348.922 342.721 348.922 344.216V344.404H342.891ZM347.469 343.326C347.391 342.435 347.164 341.786 346.789 341.38C346.414 340.969 345.875 340.763 345.172 340.763C344.49 340.763 343.948 340.992 343.547 341.451C343.151 341.904 342.938 342.529 342.906 343.326H347.469ZM353.969 348.271C353.51 348.396 353.036 348.458 352.547 348.458C351.984 348.458 351.562 348.299 351.281 347.982C351 347.659 350.859 347.18 350.859 346.544V340.904H349.883V339.88H350.914L351.328 337.99H352.266V339.88H353.828V340.904H352.266V346.24C352.266 346.646 352.331 346.932 352.461 347.099C352.596 347.26 352.828 347.341 353.156 347.341C353.333 347.341 353.604 347.305 353.969 347.232V348.271Z" fill="#BAA1A7"/>
<g filter="url(#filter1_dd_1_118)">
<path d="M22 404C22 395.163 29.1634 388 38 388H404C412.837 388 420 395.163 420 404V777C420 785.837 412.837 793 404 793H38C29.1634 793 22 785.837 22 777V404Z" fill="white" shape-rendering="crispEdges"/>
<path d="M59.7363 437.267V438.333H52.1484V428.702H59.4561V429.768H53.4541V432.858H59.0459V433.91H53.4541V437.267H59.7363ZM62.5322 434.047V438.333H61.3086V432.516C61.3086 432.083 61.304 431.737 61.2949 431.477C61.2904 431.213 61.2812 431.033 61.2676 430.937H62.4297C62.4388 431.037 62.4479 431.16 62.457 431.306C62.4661 431.452 62.473 431.605 62.4775 431.764C62.4821 431.919 62.4844 432.065 62.4844 432.202H62.5049C62.7692 431.677 63.0723 431.313 63.4141 431.108C63.7559 430.903 64.1729 430.8 64.665 430.8C65.2256 430.8 65.6676 430.912 65.9912 431.135C66.3193 431.358 66.5472 431.714 66.6748 432.202H66.6953C66.9505 431.705 67.2581 431.347 67.6182 431.128C67.9827 430.91 68.4225 430.8 68.9375 430.8C69.6849 430.8 70.2272 431.003 70.5645 431.409C70.9062 431.814 71.0771 432.48 71.0771 433.405V438.333H69.8604V433.644C69.8604 432.928 69.7624 432.434 69.5664 432.16C69.3704 431.887 69.0173 431.75 68.5068 431.75C67.9691 431.75 67.5498 431.951 67.249 432.352C66.9528 432.748 66.8047 433.313 66.8047 434.047V438.333H65.5879V433.644C65.5879 432.928 65.4899 432.434 65.2939 432.16C65.098 431.887 64.7448 431.75 64.2344 431.75C63.7103 431.75 63.2956 431.951 62.9902 432.352C62.6849 432.753 62.5322 433.318 62.5322 434.047ZM74.8301 438.47C74.0872 438.47 73.529 438.274 73.1553 437.882C72.7816 437.49 72.5947 436.952 72.5947 436.269C72.5947 435.503 72.8454 434.915 73.3467 434.505C73.8525 434.095 74.666 433.876 75.7871 433.849L77.4482 433.822V433.418C77.4482 432.817 77.3206 432.386 77.0654 432.126C76.8102 431.867 76.4092 431.737 75.8623 431.737C75.3109 431.737 74.9098 431.83 74.6592 432.017C74.4085 432.204 74.2581 432.502 74.208 432.912L72.9229 432.796C73.1325 431.466 74.1214 430.8 75.8896 430.8C76.8193 430.8 77.5189 431.014 77.9883 431.443C78.4577 431.867 78.6924 432.482 78.6924 433.288V436.474C78.6924 436.839 78.7402 437.114 78.8359 437.301C78.9316 437.483 79.1139 437.575 79.3828 437.575C79.5104 437.575 79.6449 437.559 79.7861 437.527V438.292C79.6312 438.329 79.474 438.356 79.3145 438.374C79.1549 438.393 78.9954 438.402 78.8359 438.402C78.3802 438.402 78.0475 438.283 77.8379 438.046C77.6328 437.805 77.5166 437.429 77.4893 436.918H77.4482C77.1338 437.483 76.7669 437.884 76.3477 438.121C75.9329 438.354 75.4271 438.47 74.8301 438.47ZM77.4482 434.683L76.1016 434.71C75.5273 434.715 75.0898 434.774 74.7891 434.888C74.4883 434.997 74.2581 435.166 74.0986 435.394C73.9391 435.622 73.8594 435.92 73.8594 436.289C73.8594 436.69 73.9665 437 74.1807 437.219C74.3994 437.438 74.7093 437.547 75.1104 437.547C75.5661 437.547 75.9671 437.445 76.3135 437.24C76.6644 437.035 76.9401 436.754 77.1406 436.399C77.3457 436.039 77.4482 435.67 77.4482 435.291V434.683ZM81.96 428.189V429.365H80.7295V428.189H81.96ZM81.96 430.937V438.333H80.7295V430.937H81.96ZM85.084 428.189V438.333H83.8535V428.189H85.084Z" fill="#797B84"/>
<mask id="path-11-inside-1_1_118" fill="white">
<path d="M51 460C51 451.163 58.1634 444 67 444H372C380.837 444 388 451.163 388 460V464C388 472.837 380.837 480 372 480H67C58.1634 480 51 472.837 51 464V460Z"/>
</mask>
<path d="M51 460C51 451.163 58.1634 444 67 444H372C380.837 444 388 451.163 388 460V464C388 472.837 380.837 480 372 480H67C58.1634 480 51 472.837 51 464V460Z" fill="#EDD2E0" fill-opacity="0.3"/>
<path d="M67 444V444.667H372V444V443.333H67V444ZM388 460H387.333V464H388H388.667V460H388ZM372 480V479.333H67V480V480.667H372V480ZM51 464H51.6667V460H51H50.3333V464H51ZM67 480V479.333C58.5316 479.333 51.6667 472.468 51.6667 464H51H50.3333C50.3333 473.205 57.7952 480.667 67 480.667V480ZM388 464H387.333C387.333 472.468 380.468 479.333 372 479.333V480V480.667C381.205 480.667 388.667 473.205 388.667 464H388ZM372 444V444.667C380.468 444.667 387.333 451.532 387.333 460H388H388.667C388.667 450.795 381.205 443.333 372 443.333V444ZM67 444V443.333C57.7953 443.333 50.3333 450.795 50.3333 460H51H51.6667C51.6667 451.532 58.5316 444.667 67 444.667V444Z" fill="#DBABBE" fill-opacity="0.3" mask="url(#path-11-inside-1_1_118)"/>
<path d="M69.9521 459.604L67.1904 467H65.7344L63.0479 459.604H64.3604L65.9873 464.416C66.0192 464.507 66.0739 464.689 66.1514 464.963C66.2288 465.232 66.3314 465.59 66.459 466.036C66.5182 465.858 66.5752 465.674 66.6299 465.482C66.6891 465.286 66.7461 465.097 66.8008 464.915C66.86 464.733 66.9147 464.571 66.9648 464.43L68.6465 459.604H69.9521ZM77.1982 463.295C77.1982 464.589 76.9134 465.553 76.3438 466.187C75.7741 466.82 74.9469 467.137 73.8623 467.137C72.7822 467.137 71.9665 466.809 71.415 466.152C70.8636 465.492 70.5879 464.539 70.5879 463.295C70.5879 462.019 70.8636 461.062 71.415 460.424C71.971 459.786 72.8005 459.467 73.9033 459.467C75.0335 459.467 75.8652 459.779 76.3984 460.403C76.9316 461.023 77.1982 461.987 77.1982 463.295ZM75.9062 463.295C75.9062 462.274 75.7536 461.534 75.4482 461.073C75.1475 460.608 74.6393 460.376 73.9238 460.376C73.2038 460.376 72.682 460.613 72.3584 461.087C72.0394 461.556 71.8799 462.292 71.8799 463.295C71.8799 464.27 72.0371 465.004 72.3516 465.496C72.6706 465.984 73.1696 466.228 73.8486 466.228C74.5869 466.228 75.1133 465.991 75.4277 465.517C75.7467 465.043 75.9062 464.302 75.9062 463.295ZM81.5801 466.945C81.179 467.055 80.7643 467.109 80.3359 467.109C79.8438 467.109 79.4746 466.97 79.2285 466.692C78.9824 466.41 78.8594 465.991 78.8594 465.435V460.499H78.0049V459.604H78.9072L79.2695 457.949H80.0898V459.604H81.457V460.499H80.0898V465.168C80.0898 465.523 80.1468 465.774 80.2607 465.92C80.3792 466.061 80.582 466.132 80.8691 466.132C81.0241 466.132 81.2611 466.1 81.5801 466.036V466.945ZM83.8906 463.145V467H82.6602V461.326C82.6602 461.066 82.6556 460.793 82.6465 460.506C82.6419 460.219 82.6328 459.918 82.6191 459.604H83.7812C83.7904 459.813 83.7972 460.002 83.8018 460.171C83.8109 460.34 83.8177 460.488 83.8223 460.615C83.8268 460.738 83.8291 460.843 83.8291 460.93C83.8337 461.012 83.8359 461.073 83.8359 461.114H83.8633C84 460.668 84.1504 460.321 84.3145 460.075C84.474 459.847 84.6562 459.69 84.8613 459.604C85.0664 459.512 85.3193 459.467 85.6201 459.467C85.7887 459.467 85.9551 459.49 86.1191 459.535V460.663C85.9642 460.618 85.7454 460.595 85.4629 460.595C84.9525 460.595 84.5628 460.816 84.2939 461.258C84.0251 461.695 83.8906 462.324 83.8906 463.145ZM88.2383 463.562C88.2383 464.409 88.4137 465.063 88.7646 465.523C89.1156 465.984 89.6283 466.214 90.3027 466.214C90.8359 466.214 91.262 466.107 91.5811 465.893C91.9046 465.678 92.1234 465.407 92.2373 465.079L93.3174 465.387C92.8753 466.553 91.8704 467.137 90.3027 467.137C89.209 467.137 88.375 466.811 87.8008 466.159C87.2311 465.507 86.9463 464.539 86.9463 463.254C86.9463 462.033 87.2311 461.096 87.8008 460.444C88.375 459.793 89.193 459.467 90.2549 459.467C91.3441 459.467 92.1598 459.795 92.7021 460.451C93.2445 461.107 93.5156 462.09 93.5156 463.397V463.562H88.2383ZM92.2441 462.618C92.1758 461.839 91.9775 461.271 91.6494 460.916C91.3213 460.556 90.8496 460.376 90.2344 460.376C89.6374 460.376 89.1634 460.576 88.8125 460.978C88.4661 461.374 88.2793 461.921 88.252 462.618H92.2441ZM107.146 461.839C107.146 462.687 107.017 463.452 106.757 464.136C106.493 464.824 106.126 465.355 105.656 465.729C105.191 466.102 104.67 466.289 104.091 466.289C103.64 466.289 103.291 466.189 103.045 465.988C102.799 465.788 102.676 465.487 102.676 465.086C102.68 465.008 102.683 464.929 102.683 464.847C102.687 464.765 102.692 464.685 102.696 464.607H102.655C102.354 465.168 101.981 465.59 101.534 465.872C101.092 466.15 100.614 466.289 100.099 466.289C99.3831 466.289 98.8271 466.057 98.4307 465.592C98.0387 465.127 97.8428 464.482 97.8428 463.657C97.8428 462.914 97.9909 462.219 98.2871 461.572C98.5833 460.93 98.9935 460.419 99.5176 460.041C100.046 459.663 100.632 459.474 101.274 459.474C102.268 459.474 102.954 459.888 103.332 460.718H103.373L103.64 459.624H104.706L103.913 463.083C103.744 463.817 103.66 464.393 103.66 464.812C103.66 465.027 103.706 465.188 103.797 465.298C103.893 465.403 104.032 465.455 104.214 465.455C104.583 465.455 104.92 465.298 105.226 464.983C105.535 464.669 105.777 464.236 105.95 463.685C106.128 463.133 106.217 462.522 106.217 461.853C106.217 461.041 106.041 460.317 105.69 459.679C105.34 459.05 104.834 458.567 104.173 458.229C103.512 457.888 102.74 457.717 101.855 457.717C100.757 457.717 99.7819 457.961 98.9297 458.448C98.082 458.936 97.4167 459.64 96.9336 460.561C96.4505 461.477 96.209 462.504 96.209 463.644C96.209 464.528 96.389 465.302 96.749 465.968C97.1045 466.642 97.6195 467.16 98.2939 467.52C98.973 467.88 99.7637 468.06 100.666 468.06C101.327 468.06 101.997 467.973 102.676 467.8C103.355 467.631 104.059 467.349 104.788 466.952L105.164 467.718C104.503 468.114 103.785 468.415 103.011 468.62C102.241 468.83 101.459 468.935 100.666 468.935C99.5677 468.935 98.6084 468.716 97.7881 468.278C96.9632 467.845 96.332 467.228 95.8945 466.426C95.4616 465.619 95.2451 464.692 95.2451 463.644C95.2451 462.372 95.5299 461.212 96.0996 460.164C96.6693 459.12 97.4554 458.309 98.458 457.73C99.4652 457.147 100.593 456.855 101.842 456.855C102.94 456.855 103.888 457.061 104.686 457.471C105.483 457.885 106.091 458.469 106.511 459.221C106.935 459.973 107.146 460.845 107.146 461.839ZM103.004 461.894C103.004 461.429 102.854 461.055 102.553 460.772C102.252 460.485 101.851 460.342 101.35 460.342C100.889 460.342 100.479 460.488 100.119 460.779C99.7637 461.066 99.4834 461.467 99.2783 461.982C99.0732 462.493 98.9707 463.047 98.9707 463.644C98.9707 464.19 99.0778 464.619 99.292 464.929C99.5107 465.239 99.8457 465.394 100.297 465.394C100.652 465.394 100.992 465.296 101.315 465.1C101.644 464.904 101.933 464.639 102.184 464.307C102.361 464.07 102.509 463.799 102.628 463.493C102.751 463.188 102.844 462.892 102.908 462.604C102.972 462.313 103.004 462.076 103.004 461.894ZM110.25 463.562C110.25 464.409 110.425 465.063 110.776 465.523C111.127 465.984 111.64 466.214 112.314 466.214C112.848 466.214 113.274 466.107 113.593 465.893C113.916 465.678 114.135 465.407 114.249 465.079L115.329 465.387C114.887 466.553 113.882 467.137 112.314 467.137C111.221 467.137 110.387 466.811 109.812 466.159C109.243 465.507 108.958 464.539 108.958 463.254C108.958 462.033 109.243 461.096 109.812 460.444C110.387 459.793 111.205 459.467 112.267 459.467C113.356 459.467 114.172 459.795 114.714 460.451C115.256 461.107 115.527 462.09 115.527 463.397V463.562H110.25ZM114.256 462.618C114.188 461.839 113.989 461.271 113.661 460.916C113.333 460.556 112.861 460.376 112.246 460.376C111.649 460.376 111.175 460.576 110.824 460.978C110.478 461.374 110.291 461.921 110.264 462.618H114.256ZM118.351 462.714V467H117.127V461.183C117.127 460.75 117.122 460.403 117.113 460.144C117.109 459.879 117.1 459.699 117.086 459.604H118.248C118.257 459.704 118.266 459.827 118.275 459.973C118.285 460.118 118.291 460.271 118.296 460.431C118.3 460.586 118.303 460.731 118.303 460.868H118.323C118.588 460.344 118.891 459.979 119.232 459.774C119.574 459.569 119.991 459.467 120.483 459.467C121.044 459.467 121.486 459.578 121.81 459.802C122.138 460.025 122.366 460.381 122.493 460.868H122.514C122.769 460.371 123.076 460.014 123.437 459.795C123.801 459.576 124.241 459.467 124.756 459.467C125.503 459.467 126.046 459.67 126.383 460.075C126.725 460.481 126.896 461.146 126.896 462.071V467H125.679V462.311C125.679 461.595 125.581 461.101 125.385 460.827C125.189 460.554 124.836 460.417 124.325 460.417C123.787 460.417 123.368 460.618 123.067 461.019C122.771 461.415 122.623 461.98 122.623 462.714V467H121.406V462.311C121.406 461.595 121.308 461.101 121.112 460.827C120.916 460.554 120.563 460.417 120.053 460.417C119.529 460.417 119.114 460.618 118.809 461.019C118.503 461.42 118.351 461.985 118.351 462.714ZM130.648 467.137C129.906 467.137 129.347 466.941 128.974 466.549C128.6 466.157 128.413 465.619 128.413 464.936C128.413 464.17 128.664 463.582 129.165 463.172C129.671 462.762 130.484 462.543 131.605 462.516L133.267 462.488V462.085C133.267 461.483 133.139 461.053 132.884 460.793C132.629 460.533 132.228 460.403 131.681 460.403C131.129 460.403 130.728 460.497 130.478 460.684C130.227 460.87 130.076 461.169 130.026 461.579L128.741 461.463C128.951 460.132 129.94 459.467 131.708 459.467C132.638 459.467 133.337 459.681 133.807 460.109C134.276 460.533 134.511 461.148 134.511 461.955V465.141C134.511 465.505 134.559 465.781 134.654 465.968C134.75 466.15 134.932 466.241 135.201 466.241C135.329 466.241 135.463 466.225 135.604 466.193V466.959C135.45 466.995 135.292 467.023 135.133 467.041C134.973 467.059 134.814 467.068 134.654 467.068C134.199 467.068 133.866 466.95 133.656 466.713C133.451 466.471 133.335 466.095 133.308 465.585H133.267C132.952 466.15 132.585 466.551 132.166 466.788C131.751 467.021 131.245 467.137 130.648 467.137ZM133.267 463.35L131.92 463.377C131.346 463.382 130.908 463.441 130.607 463.555C130.307 463.664 130.076 463.833 129.917 464.061C129.757 464.288 129.678 464.587 129.678 464.956C129.678 465.357 129.785 465.667 129.999 465.886C130.218 466.104 130.528 466.214 130.929 466.214C131.384 466.214 131.785 466.111 132.132 465.906C132.483 465.701 132.758 465.421 132.959 465.065C133.164 464.705 133.267 464.336 133.267 463.958V463.35ZM137.778 456.855V458.031H136.548V456.855H137.778ZM137.778 459.604V467H136.548V459.604H137.778ZM140.902 456.855V467H139.672V456.855H140.902ZM144.457 465.503V467H143.124V465.503H144.457ZM149.522 467.137C148.488 467.137 147.697 466.811 147.15 466.159C146.608 465.503 146.337 464.548 146.337 463.295C146.337 462.051 146.61 461.103 147.157 460.451C147.704 459.795 148.488 459.467 149.509 459.467C150.265 459.467 150.892 459.663 151.389 460.055C151.89 460.447 152.204 460.987 152.332 461.675L151.067 461.771C151.004 461.36 150.842 461.035 150.582 460.793C150.322 460.551 149.953 460.431 149.475 460.431C148.823 460.431 148.351 460.647 148.06 461.08C147.768 461.513 147.622 462.242 147.622 463.268C147.622 464.252 147.777 464.981 148.087 465.455C148.397 465.929 148.864 466.166 149.488 466.166C149.926 466.166 150.29 466.048 150.582 465.811C150.878 465.574 151.061 465.209 151.129 464.717L152.373 464.799C152.309 465.273 152.15 465.685 151.895 466.036C151.644 466.387 151.316 466.658 150.91 466.85C150.509 467.041 150.047 467.137 149.522 467.137ZM159.94 463.295C159.94 464.589 159.656 465.553 159.086 466.187C158.516 466.82 157.689 467.137 156.604 467.137C155.524 467.137 154.709 466.809 154.157 466.152C153.606 465.492 153.33 464.539 153.33 463.295C153.33 462.019 153.606 461.062 154.157 460.424C154.713 459.786 155.543 459.467 156.646 459.467C157.776 459.467 158.607 459.779 159.141 460.403C159.674 461.023 159.94 461.987 159.94 463.295ZM158.648 463.295C158.648 462.274 158.496 461.534 158.19 461.073C157.89 460.608 157.382 460.376 156.666 460.376C155.946 460.376 155.424 460.613 155.101 461.087C154.782 461.556 154.622 462.292 154.622 463.295C154.622 464.27 154.779 465.004 155.094 465.496C155.413 465.984 155.912 466.228 156.591 466.228C157.329 466.228 157.855 465.991 158.17 465.517C158.489 465.043 158.648 464.302 158.648 463.295ZM162.729 462.714V467H161.506V461.183C161.506 460.75 161.501 460.403 161.492 460.144C161.488 459.879 161.479 459.699 161.465 459.604H162.627C162.636 459.704 162.645 459.827 162.654 459.973C162.663 460.118 162.67 460.271 162.675 460.431C162.679 460.586 162.682 460.731 162.682 460.868H162.702C162.966 460.344 163.27 459.979 163.611 459.774C163.953 459.569 164.37 459.467 164.862 459.467C165.423 459.467 165.865 459.578 166.188 459.802C166.517 460.025 166.744 460.381 166.872 460.868H166.893C167.148 460.371 167.455 460.014 167.815 459.795C168.18 459.576 168.62 459.467 169.135 459.467C169.882 459.467 170.424 459.67 170.762 460.075C171.104 460.481 171.274 461.146 171.274 462.071V467H170.058V462.311C170.058 461.595 169.96 461.101 169.764 460.827C169.568 460.554 169.215 460.417 168.704 460.417C168.166 460.417 167.747 460.618 167.446 461.019C167.15 461.415 167.002 461.98 167.002 462.714V467H165.785V462.311C165.785 461.595 165.687 461.101 165.491 460.827C165.295 460.554 164.942 460.417 164.432 460.417C163.908 460.417 163.493 460.618 163.188 461.019C162.882 461.42 162.729 461.985 162.729 462.714Z" fill="#BAA1A7"/>
<path d="M53.3105 511.908V518.333H52.1484V508.702H53.8643L56.4277 515.38C56.5189 515.649 56.6055 515.938 56.6875 516.248C56.7741 516.554 56.8311 516.775 56.8584 516.911C56.8857 516.788 56.9313 516.62 56.9951 516.406C57.0589 516.187 57.1227 515.977 57.1865 515.777C57.2503 515.576 57.2959 515.444 57.3232 515.38L59.8389 508.702H61.5137V518.333H60.3379V511.908C60.3379 511.552 60.3424 511.203 60.3516 510.862C60.3652 510.52 60.3812 510.185 60.3994 509.857C60.2855 510.262 60.1784 510.627 60.0781 510.951C59.9824 511.27 59.889 511.543 59.7979 511.771L57.3096 518.333H56.3936L53.8711 511.771L53.2627 509.857C53.2718 510.199 53.2809 510.54 53.29 510.882C53.3037 511.224 53.3105 511.566 53.3105 511.908ZM69.8604 514.628C69.8604 515.923 69.5755 516.886 69.0059 517.52C68.4362 518.153 67.609 518.47 66.5244 518.47C65.4443 518.47 64.6286 518.142 64.0771 517.486C63.5257 516.825 63.25 515.872 63.25 514.628C63.25 513.352 63.5257 512.395 64.0771 511.757C64.6331 511.119 65.4626 510.8 66.5654 510.8C67.6956 510.8 68.5273 511.112 69.0605 511.737C69.5938 512.356 69.8604 513.32 69.8604 514.628ZM68.5684 514.628C68.5684 513.607 68.4157 512.867 68.1104 512.407C67.8096 511.942 67.3014 511.709 66.5859 511.709C65.8659 511.709 65.3441 511.946 65.0205 512.42C64.7015 512.89 64.542 513.626 64.542 514.628C64.542 515.604 64.6992 516.337 65.0137 516.829C65.3327 517.317 65.8317 517.561 66.5107 517.561C67.249 517.561 67.7754 517.324 68.0898 516.85C68.4089 516.376 68.5684 515.635 68.5684 514.628ZM74.2422 518.279C73.8411 518.388 73.4264 518.443 72.998 518.443C72.5059 518.443 72.1367 518.304 71.8906 518.026C71.6445 517.743 71.5215 517.324 71.5215 516.768V511.832H70.667V510.937H71.5693L71.9316 509.283H72.752V510.937H74.1191V511.832H72.752V516.501C72.752 516.857 72.8089 517.107 72.9229 517.253C73.0413 517.395 73.2441 517.465 73.5312 517.465C73.6862 517.465 73.9232 517.433 74.2422 517.369V518.279ZM83.9561 518.333C83.9469 518.283 83.9355 518.19 83.9219 518.053C83.9128 517.912 83.9036 517.757 83.8945 517.588C83.89 517.42 83.8877 517.271 83.8877 517.144H83.8604C83.6325 517.618 83.3294 517.957 82.9512 518.162C82.5775 518.368 82.1126 518.47 81.5566 518.47C80.6224 518.47 79.9342 518.156 79.4922 517.527C79.0547 516.898 78.8359 515.945 78.8359 514.669C78.8359 513.38 79.0615 512.413 79.5127 511.771C79.9684 511.124 80.6497 510.8 81.5566 510.8C82.1172 510.8 82.5843 510.903 82.958 511.108C83.3317 511.313 83.6325 511.639 83.8604 512.085H83.874L83.8604 511.258V508.189H85.0908V516.809C85.0908 517.196 85.0931 517.518 85.0977 517.773C85.1068 518.023 85.1182 518.21 85.1318 518.333H83.9561ZM80.1279 514.628C80.1279 515.663 80.2646 516.403 80.5381 516.85C80.8115 517.297 81.2559 517.52 81.8711 517.52C82.5684 517.52 83.0742 517.278 83.3887 516.795C83.7031 516.312 83.8604 515.563 83.8604 514.546C83.8604 513.566 83.7031 512.849 83.3887 512.393C83.0742 511.937 82.5729 511.709 81.8848 511.709C81.265 511.709 80.8161 511.939 80.5381 512.4C80.2646 512.855 80.1279 513.598 80.1279 514.628ZM87.9277 514.895C87.9277 515.743 88.1032 516.396 88.4541 516.857C88.805 517.317 89.3177 517.547 89.9922 517.547C90.5254 517.547 90.9515 517.44 91.2705 517.226C91.5941 517.012 91.8128 516.741 91.9268 516.412L93.0068 516.72C92.5648 517.887 91.5599 518.47 89.9922 518.47C88.8984 518.47 88.0645 518.144 87.4902 517.493C86.9206 516.841 86.6357 515.872 86.6357 514.587C86.6357 513.366 86.9206 512.429 87.4902 511.778C88.0645 511.126 88.8825 510.8 89.9443 510.8C91.0335 510.8 91.8493 511.128 92.3916 511.785C92.9339 512.441 93.2051 513.423 93.2051 514.731V514.895H87.9277ZM91.9336 513.952C91.8652 513.172 91.667 512.605 91.3389 512.249C91.0107 511.889 90.5391 511.709 89.9238 511.709C89.3268 511.709 88.8529 511.91 88.502 512.311C88.1556 512.707 87.9688 513.254 87.9414 513.952H91.9336ZM104.929 514.601C104.929 515.891 104.701 516.859 104.245 517.506C103.794 518.149 103.115 518.47 102.208 518.47C101.069 518.47 100.303 518.042 99.9111 517.185H99.877C99.8952 517.217 99.9043 517.604 99.9043 518.347V521.239H98.6738V512.448C98.6738 512.069 98.6693 511.755 98.6602 511.504C98.6556 511.249 98.6465 511.06 98.6328 510.937H99.8223C99.8268 510.955 99.8337 511.044 99.8428 511.203C99.8564 511.363 99.8678 511.536 99.877 511.723C99.8861 511.905 99.8906 512.04 99.8906 512.126H99.918C100.137 511.671 100.426 511.338 100.786 511.128C101.146 510.914 101.62 510.807 102.208 510.807C103.119 510.807 103.801 511.112 104.252 511.723C104.703 512.334 104.929 513.293 104.929 514.601ZM103.637 514.628C103.637 513.598 103.498 512.862 103.22 512.42C102.942 511.978 102.5 511.757 101.894 511.757C101.219 511.757 100.718 511.992 100.39 512.461C100.066 512.926 99.9043 513.68 99.9043 514.724C99.9043 515.695 100.059 516.41 100.369 516.87C100.679 517.331 101.183 517.561 101.88 517.561C102.491 517.561 102.935 517.338 103.213 516.891C103.495 516.44 103.637 515.686 103.637 514.628ZM108.354 518.47C107.611 518.47 107.052 518.274 106.679 517.882C106.305 517.49 106.118 516.952 106.118 516.269C106.118 515.503 106.369 514.915 106.87 514.505C107.376 514.095 108.189 513.876 109.311 513.849L110.972 513.822V513.418C110.972 512.817 110.844 512.386 110.589 512.126C110.334 511.867 109.933 511.737 109.386 511.737C108.834 511.737 108.433 511.83 108.183 512.017C107.932 512.204 107.782 512.502 107.731 512.912L106.446 512.796C106.656 511.466 107.645 510.8 109.413 510.8C110.343 510.8 111.042 511.014 111.512 511.443C111.981 511.867 112.216 512.482 112.216 513.288V516.474C112.216 516.839 112.264 517.114 112.359 517.301C112.455 517.483 112.637 517.575 112.906 517.575C113.034 517.575 113.168 517.559 113.31 517.527V518.292C113.155 518.329 112.997 518.356 112.838 518.374C112.678 518.393 112.519 518.402 112.359 518.402C111.904 518.402 111.571 518.283 111.361 518.046C111.156 517.805 111.04 517.429 111.013 516.918H110.972C110.657 517.483 110.29 517.884 109.871 518.121C109.456 518.354 108.951 518.47 108.354 518.47ZM110.972 514.683L109.625 514.71C109.051 514.715 108.613 514.774 108.312 514.888C108.012 514.997 107.782 515.166 107.622 515.394C107.463 515.622 107.383 515.92 107.383 516.289C107.383 516.69 107.49 517 107.704 517.219C107.923 517.438 108.233 517.547 108.634 517.547C109.09 517.547 109.491 517.445 109.837 517.24C110.188 517.035 110.464 516.754 110.664 516.399C110.869 516.039 110.972 515.67 110.972 515.291V514.683ZM119.811 516.289C119.811 516.987 119.546 517.524 119.018 517.903C118.493 518.281 117.757 518.47 116.81 518.47C115.889 518.47 115.178 518.32 114.677 518.019C114.18 517.714 113.856 517.24 113.706 516.597L114.793 516.385C114.898 516.782 115.114 517.073 115.442 517.26C115.771 517.442 116.226 517.534 116.81 517.534C117.434 517.534 117.89 517.438 118.177 517.246C118.468 517.055 118.614 516.768 118.614 516.385C118.614 516.093 118.514 515.856 118.313 515.674C118.113 515.492 117.789 515.341 117.343 515.223C116.814 515.082 116.393 514.966 116.078 514.874C115.768 514.783 115.529 514.706 115.36 514.642C115.192 514.574 115.057 514.51 114.957 514.451C114.656 514.277 114.422 514.065 114.253 513.815C114.084 513.564 114 513.257 114 512.892C114 512.217 114.239 511.705 114.718 511.354C115.201 510.998 115.903 510.821 116.823 510.821C117.639 510.821 118.286 510.964 118.765 511.251C119.248 511.538 119.553 511.999 119.681 512.632L118.573 512.769C118.505 512.441 118.32 512.19 118.02 512.017C117.723 511.839 117.325 511.75 116.823 511.75C116.267 511.75 115.857 511.835 115.593 512.003C115.328 512.172 115.196 512.427 115.196 512.769C115.196 513.02 115.271 513.227 115.422 513.391C115.572 513.55 115.859 513.683 116.283 513.787C116.853 513.924 117.395 514.075 117.91 514.239C118.425 514.398 118.794 514.558 119.018 514.717C119.277 514.904 119.473 515.125 119.605 515.38C119.742 515.631 119.811 515.934 119.811 516.289ZM126.811 516.289C126.811 516.987 126.546 517.524 126.018 517.903C125.493 518.281 124.757 518.47 123.81 518.47C122.889 518.47 122.178 518.32 121.677 518.019C121.18 517.714 120.856 517.24 120.706 516.597L121.793 516.385C121.898 516.782 122.114 517.073 122.442 517.26C122.771 517.442 123.226 517.534 123.81 517.534C124.434 517.534 124.89 517.438 125.177 517.246C125.468 517.055 125.614 516.768 125.614 516.385C125.614 516.093 125.514 515.856 125.313 515.674C125.113 515.492 124.789 515.341 124.343 515.223C123.814 515.082 123.393 514.966 123.078 514.874C122.768 514.783 122.529 514.706 122.36 514.642C122.192 514.574 122.057 514.51 121.957 514.451C121.656 514.277 121.422 514.065 121.253 513.815C121.084 513.564 121 513.257 121 512.892C121 512.217 121.239 511.705 121.718 511.354C122.201 510.998 122.903 510.821 123.823 510.821C124.639 510.821 125.286 510.964 125.765 511.251C126.248 511.538 126.553 511.999 126.681 512.632L125.573 512.769C125.505 512.441 125.32 512.19 125.02 512.017C124.723 511.839 124.325 511.75 123.823 511.75C123.267 511.75 122.857 511.835 122.593 512.003C122.328 512.172 122.196 512.427 122.196 512.769C122.196 513.02 122.271 513.227 122.422 513.391C122.572 513.55 122.859 513.683 123.283 513.787C123.853 513.924 124.395 514.075 124.91 514.239C125.425 514.398 125.794 514.558 126.018 514.717C126.277 514.904 126.473 515.125 126.605 515.38C126.742 515.631 126.811 515.934 126.811 516.289ZM129.203 514.895C129.203 515.743 129.379 516.396 129.729 516.857C130.08 517.317 130.593 517.547 131.268 517.547C131.801 517.547 132.227 517.44 132.546 517.226C132.869 517.012 133.088 516.741 133.202 516.412L134.282 516.72C133.84 517.887 132.835 518.47 131.268 518.47C130.174 518.47 129.34 518.144 128.766 517.493C128.196 516.841 127.911 515.872 127.911 514.587C127.911 513.366 128.196 512.429 128.766 511.778C129.34 511.126 130.158 510.8 131.22 510.8C132.309 510.8 133.125 511.128 133.667 511.785C134.209 512.441 134.48 513.423 134.48 514.731V514.895H129.203ZM133.209 513.952C133.141 513.172 132.942 512.605 132.614 512.249C132.286 511.889 131.814 511.709 131.199 511.709C130.602 511.709 130.128 511.91 129.777 512.311C129.431 512.707 129.244 513.254 129.217 513.952H133.209Z" fill="#797B84"/>
<mask id="path-15-inside-2_1_118" fill="white">
<path d="M51 540C51 531.163 58.1634 524 67 524H372C380.837 524 388 531.163 388 540V544C388 552.837 380.837 560 372 560H67C58.1634 560 51 552.837 51 544V540Z"/>
</mask>
<path d="M51 540C51 531.163 58.1634 524 67 524H372C380.837 524 388 531.163 388 540V544C388 552.837 380.837 560 372 560H67C58.1634 560 51 552.837 51 544V540Z" fill="#EDD2E0" fill-opacity="0.3"/>
<path d="M67 524V524.667H372V524V523.333H67V524ZM388 540H387.333V544H388H388.667V540H388ZM372 560V559.333H67V560V560.667H372V560ZM51 544H51.6667V540H51H50.3333V544H51ZM67 560V559.333C58.5316 559.333 51.6667 552.468 51.6667 544H51H50.3333C50.3333 553.205 57.7952 560.667 67 560.667V560ZM388 544H387.333C387.333 552.468 380.468 559.333 372 559.333V560V560.667C381.205 560.667 388.667 553.205 388.667 544H388ZM372 524V524.667C380.468 524.667 387.333 531.532 387.333 540H388H388.667C388.667 530.795 381.205 523.333 372 523.333V524ZM67 524V523.333C57.7953 523.333 50.3333 530.795 50.3333 540H51H51.6667C51.6667 531.532 58.5316 524.667 67 524.667V524Z" fill="#DBABBE" fill-opacity="0.3" mask="url(#path-15-inside-2_1_118)"/>
<path d="M67.3477 542.338C67.3477 542.68 67.2611 542.996 67.0879 543.288C66.9193 543.58 66.6891 543.814 66.3975 543.992C66.1104 544.17 65.7868 544.259 65.4268 544.259C65.085 544.259 64.7705 544.172 64.4834 543.999C64.2008 543.821 63.9753 543.587 63.8066 543.295C63.638 543.003 63.5537 542.684 63.5537 542.338C63.5537 541.987 63.638 541.67 63.8066 541.388C63.9798 541.105 64.2077 540.882 64.4902 540.718C64.7773 540.549 65.0895 540.465 65.4268 540.465C65.7822 540.465 66.1035 540.549 66.3906 540.718C66.6823 540.886 66.9147 541.112 67.0879 541.395C67.2611 541.677 67.3477 541.992 67.3477 542.338ZM72.2559 542.338C72.2559 542.68 72.1693 542.996 71.9961 543.288C71.8275 543.58 71.5973 543.814 71.3057 543.992C71.0186 544.17 70.695 544.259 70.335 544.259C69.9932 544.259 69.6787 544.172 69.3916 543.999C69.109 543.821 68.8835 543.587 68.7148 543.295C68.5462 543.003 68.4619 542.684 68.4619 542.338C68.4619 541.987 68.5462 541.67 68.7148 541.388C68.888 541.105 69.1159 540.882 69.3984 540.718C69.6855 540.549 69.9977 540.465 70.335 540.465C70.6904 540.465 71.0117 540.549 71.2988 540.718C71.5905 540.886 71.8229 541.112 71.9961 541.395C72.1693 541.677 72.2559 541.992 72.2559 542.338ZM77.1641 542.338C77.1641 542.68 77.0775 542.996 76.9043 543.288C76.7357 543.58 76.5055 543.814 76.2139 543.992C75.9268 544.17 75.6032 544.259 75.2432 544.259C74.9014 544.259 74.5869 544.172 74.2998 543.999C74.0173 543.821 73.7917 543.587 73.623 543.295C73.4544 543.003 73.3701 542.684 73.3701 542.338C73.3701 541.987 73.4544 541.67 73.623 541.388C73.7962 541.105 74.0241 540.882 74.3066 540.718C74.5938 540.549 74.9059 540.465 75.2432 540.465C75.5986 540.465 75.9199 540.549 76.207 540.718C76.4987 540.886 76.7311 541.112 76.9043 541.395C77.0775 541.677 77.1641 541.992 77.1641 542.338ZM82.0723 542.338C82.0723 542.68 81.9857 542.996 81.8125 543.288C81.6439 543.58 81.4137 543.814 81.1221 543.992C80.835 544.17 80.5114 544.259 80.1514 544.259C79.8096 544.259 79.4951 544.172 79.208 543.999C78.9255 543.821 78.6999 543.587 78.5312 543.295C78.3626 543.003 78.2783 542.684 78.2783 542.338C78.2783 541.987 78.3626 541.67 78.5312 541.388C78.7044 541.105 78.9323 540.882 79.2148 540.718C79.502 540.549 79.8141 540.465 80.1514 540.465C80.5068 540.465 80.8281 540.549 81.1152 540.718C81.4069 540.886 81.6393 541.112 81.8125 541.395C81.9857 541.677 82.0723 541.992 82.0723 542.338ZM86.9805 542.338C86.9805 542.68 86.8939 542.996 86.7207 543.288C86.5521 543.58 86.3219 543.814 86.0303 543.992C85.7432 544.17 85.4196 544.259 85.0596 544.259C84.7178 544.259 84.4033 544.172 84.1162 543.999C83.8337 543.821 83.6081 543.587 83.4395 543.295C83.2708 543.003 83.1865 542.684 83.1865 542.338C83.1865 541.987 83.2708 541.67 83.4395 541.388C83.6126 541.105 83.8405 540.882 84.123 540.718C84.4102 540.549 84.7223 540.465 85.0596 540.465C85.415 540.465 85.7363 540.549 86.0234 540.718C86.3151 540.886 86.5475 541.112 86.7207 541.395C86.8939 541.677 86.9805 541.992 86.9805 542.338ZM91.8887 542.338C91.8887 542.68 91.8021 542.996 91.6289 543.288C91.4603 543.58 91.2301 543.814 90.9385 543.992C90.6514 544.17 90.3278 544.259 89.9678 544.259C89.626 544.259 89.3115 544.172 89.0244 543.999C88.7419 543.821 88.5163 543.587 88.3477 543.295C88.179 543.003 88.0947 542.684 88.0947 542.338C88.0947 541.987 88.179 541.67 88.3477 541.388C88.5208 541.105 88.7487 540.882 89.0312 540.718C89.3184 540.549 89.6305 540.465 89.9678 540.465C90.3232 540.465 90.6445 540.549 90.9316 540.718C91.2233 540.886 91.4557 541.112 91.6289 541.395C91.8021 541.677 91.8887 541.992 91.8887 542.338ZM96.7969 542.338C96.7969 542.68 96.7103 542.996 96.5371 543.288C96.3685 543.58 96.1383 543.814 95.8467 543.992C95.5596 544.17 95.236 544.259 94.876 544.259C94.5342 544.259 94.2197 544.172 93.9326 543.999C93.6501 543.821 93.4245 543.587 93.2559 543.295C93.0872 543.003 93.0029 542.684 93.0029 542.338C93.0029 541.987 93.0872 541.67 93.2559 541.388C93.429 541.105 93.6569 540.882 93.9395 540.718C94.2266 540.549 94.5387 540.465 94.876 540.465C95.2314 540.465 95.5527 540.549 95.8398 540.718C96.1315 540.886 96.3639 541.112 96.5371 541.395C96.7103 541.677 96.7969 541.992 96.7969 542.338ZM101.705 542.338C101.705 542.68 101.618 542.996 101.445 543.288C101.277 543.58 101.047 543.814 100.755 543.992C100.468 544.17 100.144 544.259 99.7842 544.259C99.4424 544.259 99.1279 544.172 98.8408 543.999C98.5583 543.821 98.3327 543.587 98.1641 543.295C97.9954 543.003 97.9111 542.684 97.9111 542.338C97.9111 541.987 97.9954 541.67 98.1641 541.388C98.3372 541.105 98.5651 540.882 98.8477 540.718C99.1348 540.549 99.4469 540.465 99.7842 540.465C100.14 540.465 100.461 540.549 100.748 540.718C101.04 540.886 101.272 541.112 101.445 541.395C101.618 541.677 101.705 541.992 101.705 542.338Z" fill="#BAA1A7"/>
<g filter="url(#filter2_dd_1_118)">
<path d="M51 596C51 587.163 58.1634 580 67 580H372C380.837 580 388 587.163 388 596V612C388 620.837 380.837 628 372 628H67C58.1634 628 51 620.837 51 612V596Z" fill="#DBABBE" shape-rendering="crispEdges"/>
<path d="M197.452 606.73C198.801 606.73 199.815 606.063 200.494 604.727L201.56 605.26C201.164 606.09 200.605 606.721 199.885 607.154C199.17 607.587 198.338 607.803 197.39 607.803C196.415 607.803 195.577 607.601 194.875 607.195C194.173 606.789 193.633 606.213 193.255 605.466C192.881 604.714 192.694 603.827 192.694 602.806C192.694 601.781 192.881 600.901 193.255 600.168C193.628 599.434 194.166 598.871 194.868 598.479C195.57 598.087 196.408 597.891 197.383 597.891C198.409 597.891 199.266 598.092 199.954 598.493C200.642 598.894 201.148 599.489 201.471 600.277L200.234 600.687C200.011 600.127 199.651 599.698 199.154 599.402C198.662 599.106 198.076 598.958 197.397 598.958C196.331 598.958 195.501 599.302 194.909 599.99C194.316 600.674 194.02 601.612 194.02 602.806C194.02 603.59 194.159 604.278 194.437 604.871C194.72 605.459 195.116 605.917 195.627 606.245C196.142 606.568 196.75 606.73 197.452 606.73ZM209.299 603.962C209.299 605.256 209.014 606.22 208.444 606.853C207.874 607.487 207.047 607.803 205.963 607.803C204.883 607.803 204.067 607.475 203.515 606.819C202.964 606.158 202.688 605.206 202.688 603.962C202.688 602.686 202.964 601.729 203.515 601.091C204.071 600.452 204.901 600.133 206.004 600.133C207.134 600.133 207.966 600.446 208.499 601.07C209.032 601.69 209.299 602.654 209.299 603.962ZM208.007 603.962C208.007 602.941 207.854 602.2 207.549 601.74C207.248 601.275 206.74 601.043 206.024 601.043C205.304 601.043 204.782 601.28 204.459 601.754C204.14 602.223 203.98 602.959 203.98 603.962C203.98 604.937 204.137 605.671 204.452 606.163C204.771 606.65 205.27 606.894 205.949 606.894C206.687 606.894 207.214 606.657 207.528 606.183C207.847 605.709 208.007 604.969 208.007 603.962ZM212.094 603.381V607.667H210.864V601.849C210.864 601.416 210.859 601.07 210.85 600.81C210.846 600.546 210.837 600.366 210.823 600.27H211.985C211.994 600.357 212.001 600.466 212.006 600.598C212.015 600.73 212.022 600.876 212.026 601.036C212.031 601.195 212.035 601.362 212.04 601.535H212.06C212.343 601.024 212.669 600.664 213.038 600.455C213.411 600.241 213.874 600.133 214.425 600.133C215.237 600.133 215.829 600.341 216.203 600.756C216.581 601.17 216.77 601.831 216.77 602.738V607.667H215.533V602.977C215.533 602.271 215.419 601.779 215.191 601.501C214.963 601.223 214.569 601.084 214.008 601.084C213.416 601.084 212.949 601.286 212.607 601.692C212.265 602.098 212.094 602.661 212.094 603.381ZM219.887 603.381V607.667H218.657V601.849C218.657 601.416 218.652 601.07 218.643 600.81C218.639 600.546 218.63 600.366 218.616 600.27H219.778C219.787 600.357 219.794 600.466 219.799 600.598C219.808 600.73 219.814 600.876 219.819 601.036C219.824 601.195 219.828 601.362 219.833 601.535H219.853C220.136 601.024 220.462 600.664 220.831 600.455C221.204 600.241 221.667 600.133 222.218 600.133C223.03 600.133 223.622 600.341 223.996 600.756C224.374 601.17 224.563 601.831 224.563 602.738V607.667H223.326V602.977C223.326 602.271 223.212 601.779 222.984 601.501C222.756 601.223 222.362 601.084 221.801 601.084C221.209 601.084 220.742 601.286 220.4 601.692C220.058 602.098 219.887 602.661 219.887 603.381ZM227.366 604.228C227.366 605.076 227.541 605.73 227.892 606.19C228.243 606.65 228.756 606.881 229.43 606.881C229.964 606.881 230.39 606.773 230.709 606.559C231.032 606.345 231.251 606.074 231.365 605.746L232.445 606.053C232.003 607.22 230.998 607.803 229.43 607.803C228.337 607.803 227.503 607.478 226.928 606.826C226.359 606.174 226.074 605.206 226.074 603.921C226.074 602.699 226.359 601.763 226.928 601.111C227.503 600.459 228.321 600.133 229.383 600.133C230.472 600.133 231.287 600.462 231.83 601.118C232.372 601.774 232.643 602.756 232.643 604.064V604.228H227.366ZM231.372 603.285C231.303 602.506 231.105 601.938 230.777 601.583C230.449 601.223 229.977 601.043 229.362 601.043C228.765 601.043 228.291 601.243 227.94 601.644C227.594 602.041 227.407 602.588 227.38 603.285H231.372ZM236.758 604.632L234.756 607.667H233.429L236.061 603.866L233.552 600.27H234.913L236.758 603.148L238.591 600.27H239.965L237.456 603.852L240.122 607.667H238.748L236.758 604.632ZM242.439 597.522V598.698H241.209V597.522H242.439ZM242.439 600.27V607.667H241.209V600.27H242.439ZM250.588 603.962C250.588 605.256 250.303 606.22 249.733 606.853C249.163 607.487 248.336 607.803 247.252 607.803C246.172 607.803 245.356 607.475 244.804 606.819C244.253 606.158 243.977 605.206 243.977 603.962C243.977 602.686 244.253 601.729 244.804 601.091C245.36 600.452 246.19 600.133 247.293 600.133C248.423 600.133 249.255 600.446 249.788 601.07C250.321 601.69 250.588 602.654 250.588 603.962ZM249.296 603.962C249.296 602.941 249.143 602.2 248.838 601.74C248.537 601.275 248.029 601.043 247.313 601.043C246.593 601.043 246.071 601.28 245.748 601.754C245.429 602.223 245.269 602.959 245.269 603.962C245.269 604.937 245.426 605.671 245.741 606.163C246.06 606.65 246.559 606.894 247.238 606.894C247.976 606.894 248.503 606.657 248.817 606.183C249.136 605.709 249.296 604.969 249.296 603.962ZM253.383 603.381V607.667H252.153V601.849C252.153 601.416 252.148 601.07 252.139 600.81C252.135 600.546 252.126 600.366 252.112 600.27H253.274C253.283 600.357 253.29 600.466 253.295 600.598C253.304 600.73 253.311 600.876 253.315 601.036C253.32 601.195 253.324 601.362 253.329 601.535H253.349C253.632 601.024 253.958 600.664 254.327 600.455C254.701 600.241 255.163 600.133 255.715 600.133C256.526 600.133 257.118 600.341 257.492 600.756C257.87 601.17 258.059 601.831 258.059 602.738V607.667H256.822V602.977C256.822 602.271 256.708 601.779 256.48 601.501C256.252 601.223 255.858 601.084 255.298 601.084C254.705 601.084 254.238 601.286 253.896 601.692C253.554 602.098 253.383 602.661 253.383 603.381Z" fill="white"/>
</g>
<rect width="384" height="1" transform="translate(28 653)" fill="#BAA1A7" fill-opacity="0.2"/>
<rect width="33.2917" height="16" transform="translate(201.354 644.5)" fill="white"/>
<path d="M218.114 652.334C218.114 653.217 217.946 653.979 217.61 654.619C217.278 655.26 216.805 655.754 216.192 656.102C215.579 656.445 214.852 656.617 214.012 656.617C213.169 656.617 212.44 656.445 211.827 656.102C211.217 655.758 210.747 655.266 210.415 654.625C210.087 653.984 209.923 653.221 209.923 652.334C209.923 651.451 210.085 650.697 210.409 650.072C210.737 649.443 211.206 648.961 211.815 648.625C212.428 648.289 213.165 648.121 214.024 648.121C214.868 648.121 215.594 648.287 216.204 648.619C216.817 648.951 217.288 649.432 217.616 650.061C217.948 650.686 218.114 651.443 218.114 652.334ZM216.971 652.334C216.971 651.307 216.714 650.5 216.198 649.914C215.686 649.328 214.962 649.035 214.024 649.035C213.079 649.035 212.348 649.324 211.833 649.902C211.317 650.48 211.059 651.291 211.059 652.334C211.059 653.021 211.176 653.619 211.411 654.127C211.645 654.631 211.983 655.021 212.424 655.299C212.866 655.572 213.395 655.709 214.012 655.709C214.966 655.709 215.696 655.416 216.204 654.83C216.716 654.24 216.971 653.408 216.971 652.334ZM222.977 656.617C222.301 656.617 221.712 656.492 221.208 656.242C220.704 655.992 220.313 655.635 220.036 655.17C219.758 654.705 219.62 654.148 219.62 653.5V648.244H220.739V653.406C220.739 654.16 220.93 654.732 221.313 655.123C221.696 655.514 222.249 655.709 222.971 655.709C223.714 655.709 224.29 655.508 224.7 655.105C225.114 654.699 225.321 654.107 225.321 653.33V648.244H226.434V653.395C226.434 654.062 226.292 654.637 226.007 655.117C225.725 655.598 225.325 655.969 224.805 656.23C224.29 656.488 223.68 656.617 222.977 656.617Z" fill="#BAA1A7"/>
<mask id="path-21-inside-3_1_118" fill="white">
<path d="M51 701C51 692.163 58.1634 685 67 685H372C380.837 685 388 692.163 388 701V718.333C388 727.17 380.837 734.333 372 734.333H67C58.1634 734.333 51 727.17 51 718.333V701Z"/>
</mask>
<path d="M51 701C51 692.163 58.1634 685 67 685H372C380.837 685 388 692.163 388 701V718.333C388 727.17 380.837 734.333 372 734.333H67C58.1634 734.333 51 727.17 51 718.333V701Z" fill="white"/>
<path d="M67 685V685.667H372V685V684.333H67V685ZM388 701H387.333V718.333H388H388.667V701H388ZM372 734.333V733.667H67V734.333V735H372V734.333ZM51 718.333H51.6667V701H51H50.3333V718.333H51ZM67 734.333V733.667C58.5316 733.667 51.6667 726.802 51.6667 718.333H51H50.3333C50.3333 727.538 57.7952 735 67 735V734.333ZM388 718.333H387.333C387.333 726.802 380.468 733.667 372 733.667V734.333V735C381.205 735 388.667 727.538 388.667 718.333H388ZM372 685V685.667C380.468 685.667 387.333 692.532 387.333 701H388H388.667C388.667 691.795 381.205 684.333 372 684.333V685ZM67 685V684.333C57.7953 684.333 50.3333 691.795 50.3333 701H51H51.6667C51.6667 692.532 58.5316 685.667 67 685.667V685Z" fill="#DBABBE" fill-opacity="0.3" mask="url(#path-21-inside-3_1_118)"/>
<path d="M176.776 712.397C178.125 712.397 179.139 711.729 179.818 710.394L180.884 710.927C180.488 711.757 179.93 712.388 179.21 712.821C178.494 713.254 177.662 713.47 176.715 713.47C175.739 713.47 174.901 713.267 174.199 712.862C173.497 712.456 172.957 711.88 172.579 711.132C172.205 710.38 172.018 709.494 172.018 708.473C172.018 707.448 172.205 706.568 172.579 705.834C172.952 705.101 173.49 704.538 174.192 704.146C174.894 703.754 175.732 703.558 176.708 703.558C177.733 703.558 178.59 703.759 179.278 704.16C179.966 704.561 180.472 705.155 180.796 705.944L179.558 706.354C179.335 705.793 178.975 705.365 178.478 705.069C177.986 704.773 177.4 704.624 176.721 704.624C175.655 704.624 174.826 704.968 174.233 705.657C173.641 706.34 173.344 707.279 173.344 708.473C173.344 709.257 173.483 709.945 173.761 710.537C174.044 711.125 174.44 711.583 174.951 711.911C175.466 712.235 176.074 712.397 176.776 712.397ZM183.626 709.478V713.333H182.395V707.66C182.395 707.4 182.391 707.126 182.382 706.839C182.377 706.552 182.368 706.251 182.354 705.937H183.516C183.525 706.147 183.532 706.336 183.537 706.504C183.546 706.673 183.553 706.821 183.557 706.949C183.562 707.072 183.564 707.176 183.564 707.263C183.569 707.345 183.571 707.407 183.571 707.448H183.598C183.735 707.001 183.885 706.655 184.049 706.409C184.209 706.181 184.391 706.023 184.596 705.937C184.801 705.846 185.054 705.8 185.355 705.8C185.524 705.8 185.69 705.823 185.854 705.869V706.996C185.699 706.951 185.48 706.928 185.198 706.928C184.688 706.928 184.298 707.149 184.029 707.591C183.76 708.029 183.626 708.658 183.626 709.478ZM187.973 709.895C187.973 710.743 188.149 711.397 188.5 711.857C188.851 712.317 189.363 712.547 190.038 712.547C190.571 712.547 190.997 712.44 191.316 712.226C191.64 712.012 191.858 711.741 191.972 711.412L193.052 711.72C192.61 712.887 191.605 713.47 190.038 713.47C188.944 713.47 188.11 713.144 187.536 712.493C186.966 711.841 186.681 710.872 186.681 709.587C186.681 708.366 186.966 707.429 187.536 706.778C188.11 706.126 188.928 705.8 189.99 705.8C191.079 705.8 191.895 706.128 192.437 706.785C192.98 707.441 193.251 708.423 193.251 709.731V709.895H187.973ZM191.979 708.952C191.911 708.172 191.713 707.605 191.384 707.249C191.056 706.889 190.585 706.709 189.969 706.709C189.372 706.709 188.898 706.91 188.548 707.311C188.201 707.707 188.014 708.254 187.987 708.952H191.979ZM191.993 703.223L189.737 705.123H189.094V704.987L190.578 703.025H191.993V703.223ZM195.766 709.895C195.766 710.743 195.942 711.397 196.293 711.857C196.644 712.317 197.156 712.547 197.831 712.547C198.364 712.547 198.79 712.44 199.109 712.226C199.433 712.012 199.651 711.741 199.765 711.412L200.845 711.72C200.403 712.887 199.398 713.47 197.831 713.47C196.737 713.47 195.903 713.144 195.329 712.493C194.759 711.841 194.474 710.872 194.474 709.587C194.474 708.366 194.759 707.429 195.329 706.778C195.903 706.126 196.721 705.8 197.783 705.8C198.872 705.8 199.688 706.128 200.23 706.785C200.772 707.441 201.044 708.423 201.044 709.731V709.895H195.766ZM199.772 708.952C199.704 708.172 199.506 707.605 199.177 707.249C198.849 706.889 198.378 706.709 197.762 706.709C197.165 706.709 196.691 706.91 196.341 707.311C195.994 707.707 195.807 708.254 195.78 708.952H199.772ZM203.874 709.478V713.333H202.643V707.66C202.643 707.4 202.639 707.126 202.63 706.839C202.625 706.552 202.616 706.251 202.602 705.937H203.764C203.773 706.147 203.78 706.336 203.785 706.504C203.794 706.673 203.801 706.821 203.805 706.949C203.81 707.072 203.812 707.176 203.812 707.263C203.817 707.345 203.819 707.407 203.819 707.448H203.846C203.983 707.001 204.133 706.655 204.298 706.409C204.457 706.181 204.639 706.023 204.844 705.937C205.049 705.846 205.302 705.8 205.603 705.8C205.772 705.8 205.938 705.823 206.102 705.869V706.996C205.947 706.951 205.729 706.928 205.446 706.928C204.936 706.928 204.546 707.149 204.277 707.591C204.008 708.029 203.874 708.658 203.874 709.478ZM215.85 712.069C215.568 712.579 215.24 712.941 214.866 713.156C214.497 713.365 214.036 713.47 213.485 713.47C212.674 713.47 212.079 713.27 211.701 712.869C211.327 712.463 211.14 711.795 211.14 710.866V705.937H212.378V710.626C212.378 711.365 212.492 711.866 212.719 712.13C212.952 712.39 213.346 712.52 213.902 712.52C214.494 712.52 214.962 712.317 215.303 711.911C215.645 711.506 215.816 710.943 215.816 710.223V705.937H217.047V711.754C217.047 712.183 217.049 712.529 217.053 712.793C217.063 713.058 217.074 713.238 217.088 713.333H215.925C215.921 713.311 215.912 713.203 215.898 713.012C215.889 712.821 215.88 712.506 215.871 712.069H215.85ZM220.225 709.047V713.333H218.995V707.516C218.995 707.083 218.99 706.737 218.981 706.477C218.977 706.213 218.967 706.033 218.954 705.937H220.116C220.125 706.023 220.132 706.133 220.136 706.265C220.146 706.397 220.152 706.543 220.157 706.703C220.161 706.862 220.166 707.028 220.171 707.202H220.191C220.474 706.691 220.799 706.331 221.169 706.121C221.542 705.907 222.005 705.8 222.556 705.8C223.368 705.8 223.96 706.008 224.334 706.422C224.712 706.837 224.901 707.498 224.901 708.405V713.333H223.664V708.644C223.664 707.938 223.55 707.445 223.322 707.167C223.094 706.889 222.7 706.75 222.139 706.75C221.547 706.75 221.08 706.953 220.738 707.359C220.396 707.764 220.225 708.327 220.225 709.047ZM233.494 713.47C232.459 713.47 231.669 713.144 231.122 712.493C230.579 711.836 230.308 710.882 230.308 709.628C230.308 708.384 230.582 707.436 231.129 706.785C231.675 706.128 232.459 705.8 233.48 705.8C234.237 705.8 234.863 705.996 235.36 706.388C235.861 706.78 236.176 707.32 236.303 708.008L235.039 708.104C234.975 707.694 234.813 707.368 234.553 707.126C234.294 706.885 233.924 706.764 233.446 706.764C232.794 706.764 232.323 706.981 232.031 707.413C231.739 707.846 231.593 708.576 231.593 709.601C231.593 710.585 231.748 711.314 232.058 711.788C232.368 712.262 232.835 712.499 233.46 712.499C233.897 712.499 234.262 712.381 234.553 712.144C234.85 711.907 235.032 711.542 235.1 711.05L236.344 711.132C236.281 711.606 236.121 712.019 235.866 712.37C235.615 712.72 235.287 712.992 234.882 713.183C234.48 713.374 234.018 713.47 233.494 713.47ZM243.912 709.628C243.912 710.923 243.627 711.886 243.057 712.52C242.488 713.153 241.661 713.47 240.576 713.47C239.496 713.47 238.68 713.142 238.129 712.486C237.577 711.825 237.301 710.872 237.301 709.628C237.301 708.352 237.577 707.395 238.129 706.757C238.685 706.119 239.514 705.8 240.617 705.8C241.747 705.8 242.579 706.112 243.112 706.737C243.645 707.356 243.912 708.32 243.912 709.628ZM242.62 709.628C242.62 708.607 242.467 707.867 242.162 707.407C241.861 706.942 241.353 706.709 240.637 706.709C239.917 706.709 239.396 706.946 239.072 707.42C238.753 707.89 238.593 708.626 238.593 709.628C238.593 710.604 238.751 711.337 239.065 711.829C239.384 712.317 239.883 712.561 240.562 712.561C241.3 712.561 241.827 712.324 242.141 711.85C242.46 711.376 242.62 710.635 242.62 709.628ZM246.701 709.047V713.333H245.477V707.516C245.477 707.083 245.473 706.737 245.464 706.477C245.459 706.213 245.45 706.033 245.436 705.937H246.598C246.607 706.037 246.617 706.16 246.626 706.306C246.635 706.452 246.642 706.605 246.646 706.764C246.651 706.919 246.653 707.065 246.653 707.202H246.674C246.938 706.677 247.241 706.313 247.583 706.108C247.924 705.903 248.341 705.8 248.834 705.8C249.394 705.8 249.836 705.912 250.16 706.135C250.488 706.358 250.716 706.714 250.843 707.202H250.864C251.119 706.705 251.427 706.347 251.787 706.128C252.151 705.91 252.591 705.8 253.106 705.8C253.854 705.8 254.396 706.003 254.733 706.409C255.075 706.814 255.246 707.48 255.246 708.405V713.333H254.029V708.644C254.029 707.928 253.931 707.434 253.735 707.161C253.539 706.887 253.186 706.75 252.675 706.75C252.138 706.75 251.718 706.951 251.418 707.352C251.121 707.748 250.973 708.314 250.973 709.047V713.333H249.757V708.644C249.757 707.928 249.659 707.434 249.463 707.161C249.267 706.887 248.913 706.75 248.403 706.75C247.879 706.75 247.464 706.951 247.159 707.352C246.854 707.753 246.701 708.318 246.701 709.047ZM263.367 709.601C263.367 710.891 263.139 711.859 262.683 712.506C262.232 713.149 261.553 713.47 260.646 713.47C259.507 713.47 258.741 713.042 258.349 712.185H258.315C258.333 712.217 258.342 712.604 258.342 713.347V716.239H257.112V707.448C257.112 707.069 257.107 706.755 257.098 706.504C257.094 706.249 257.085 706.06 257.071 705.937H258.26C258.265 705.955 258.272 706.044 258.281 706.203C258.295 706.363 258.306 706.536 258.315 706.723C258.324 706.905 258.329 707.04 258.329 707.126H258.356C258.575 706.671 258.864 706.338 259.224 706.128C259.584 705.914 260.058 705.807 260.646 705.807C261.558 705.807 262.239 706.112 262.69 706.723C263.141 707.334 263.367 708.293 263.367 709.601ZM262.075 709.628C262.075 708.598 261.936 707.862 261.658 707.42C261.38 706.978 260.938 706.757 260.332 706.757C259.657 706.757 259.156 706.992 258.828 707.461C258.504 707.926 258.342 708.68 258.342 709.724C258.342 710.695 258.497 711.41 258.807 711.87C259.117 712.331 259.621 712.561 260.318 712.561C260.929 712.561 261.373 712.338 261.651 711.891C261.934 711.44 262.075 710.686 262.075 709.628ZM267.749 713.279C267.348 713.388 266.933 713.443 266.505 713.443C266.012 713.443 265.643 713.304 265.397 713.026C265.151 712.743 265.028 712.324 265.028 711.768V706.832H264.174V705.937H265.076L265.438 704.283H266.258V705.937H267.626V706.832H266.258V711.501C266.258 711.857 266.315 712.107 266.429 712.253C266.548 712.395 266.751 712.465 267.038 712.465C267.193 712.465 267.43 712.433 267.749 712.37V713.279ZM269.745 709.895C269.745 710.743 269.92 711.397 270.271 711.857C270.622 712.317 271.135 712.547 271.809 712.547C272.342 712.547 272.769 712.44 273.088 712.226C273.411 712.012 273.63 711.741 273.744 711.412L274.824 711.72C274.382 712.887 273.377 713.47 271.809 713.47C270.716 713.47 269.882 713.144 269.307 712.493C268.738 711.841 268.453 710.872 268.453 709.587C268.453 708.366 268.738 707.429 269.307 706.778C269.882 706.126 270.7 705.8 271.761 705.8C272.851 705.8 273.666 706.128 274.209 706.785C274.751 707.441 275.022 708.423 275.022 709.731V709.895H269.745ZM273.751 708.952C273.682 708.172 273.484 707.605 273.156 707.249C272.828 706.889 272.356 706.709 271.741 706.709C271.144 706.709 270.67 706.91 270.319 707.311C269.973 707.707 269.786 708.254 269.758 708.952H273.751Z" fill="#797B84"/>
<path d="M162.723 764.826V770.333H161.727V762.078H163.197L165.395 767.802C165.473 768.033 165.547 768.281 165.617 768.546C165.691 768.808 165.74 768.997 165.764 769.115C165.787 769.009 165.826 768.865 165.881 768.681C165.936 768.494 165.99 768.314 166.045 768.142C166.1 767.97 166.139 767.857 166.162 767.802L168.318 762.078H169.754V770.333H168.746V764.826C168.746 764.521 168.75 764.222 168.758 763.929C168.77 763.636 168.783 763.349 168.799 763.068C168.701 763.415 168.609 763.728 168.523 764.005C168.441 764.279 168.361 764.513 168.283 764.708L166.15 770.333H165.365L163.203 764.708L162.682 763.068C162.689 763.361 162.697 763.654 162.705 763.947C162.717 764.24 162.723 764.533 162.723 764.826ZM176.908 767.158C176.908 768.267 176.664 769.093 176.176 769.636C175.688 770.179 174.979 770.451 174.049 770.451C173.123 770.451 172.424 770.169 171.951 769.607C171.479 769.04 171.242 768.224 171.242 767.158C171.242 766.064 171.479 765.244 171.951 764.697C172.428 764.15 173.139 763.876 174.084 763.876C175.053 763.876 175.766 764.144 176.223 764.679C176.68 765.21 176.908 766.036 176.908 767.158ZM175.801 767.158C175.801 766.283 175.67 765.648 175.408 765.253C175.15 764.855 174.715 764.656 174.102 764.656C173.484 764.656 173.037 764.859 172.76 765.265C172.486 765.667 172.35 766.298 172.35 767.158C172.35 767.994 172.484 768.622 172.754 769.044C173.027 769.462 173.455 769.671 174.037 769.671C174.67 769.671 175.121 769.468 175.391 769.062C175.664 768.656 175.801 768.021 175.801 767.158ZM180.664 770.286C180.32 770.38 179.965 770.427 179.598 770.427C179.176 770.427 178.859 770.308 178.648 770.07C178.438 769.828 178.332 769.468 178.332 768.992V764.761H177.6V763.994H178.373L178.684 762.576H179.387V763.994H180.559V764.761H179.387V768.763C179.387 769.068 179.436 769.283 179.533 769.408C179.635 769.529 179.809 769.589 180.055 769.589C180.188 769.589 180.391 769.562 180.664 769.507V770.286ZM188.99 770.333C188.982 770.29 188.973 770.21 188.961 770.093C188.953 769.972 188.945 769.839 188.938 769.695C188.934 769.55 188.932 769.423 188.932 769.314H188.908C188.713 769.72 188.453 770.011 188.129 770.187C187.809 770.363 187.41 770.451 186.934 770.451C186.133 770.451 185.543 770.181 185.164 769.642C184.789 769.103 184.602 768.286 184.602 767.193C184.602 766.087 184.795 765.259 185.182 764.708C185.572 764.154 186.156 763.876 186.934 763.876C187.414 763.876 187.814 763.964 188.135 764.14C188.455 764.316 188.713 764.595 188.908 764.978H188.92L188.908 764.269V761.638H189.963V769.027C189.963 769.359 189.965 769.634 189.969 769.853C189.977 770.068 189.986 770.228 189.998 770.333H188.99ZM185.709 767.158C185.709 768.044 185.826 768.679 186.061 769.062C186.295 769.445 186.676 769.636 187.203 769.636C187.801 769.636 188.234 769.429 188.504 769.015C188.773 768.601 188.908 767.958 188.908 767.087C188.908 766.247 188.773 765.632 188.504 765.242C188.234 764.851 187.805 764.656 187.215 764.656C186.684 764.656 186.299 764.853 186.061 765.247C185.826 765.638 185.709 766.275 185.709 767.158ZM192.395 767.386C192.395 768.113 192.545 768.673 192.846 769.068C193.146 769.462 193.586 769.66 194.164 769.66C194.621 769.66 194.986 769.568 195.26 769.384C195.537 769.201 195.725 768.968 195.822 768.687L196.748 768.951C196.369 769.951 195.508 770.451 194.164 770.451C193.227 770.451 192.512 770.171 192.02 769.613C191.531 769.054 191.287 768.224 191.287 767.122C191.287 766.076 191.531 765.273 192.02 764.714C192.512 764.156 193.213 763.876 194.123 763.876C195.057 763.876 195.756 764.158 196.221 764.72C196.686 765.283 196.918 766.124 196.918 767.245V767.386H192.395ZM195.828 766.578C195.77 765.91 195.6 765.423 195.318 765.119C195.037 764.81 194.633 764.656 194.105 764.656C193.594 764.656 193.188 764.828 192.887 765.171C192.59 765.511 192.43 765.98 192.406 766.578H195.828ZM206.967 767.134C206.967 768.24 206.771 769.07 206.381 769.624C205.994 770.175 205.412 770.451 204.635 770.451C203.658 770.451 203.002 770.083 202.666 769.349H202.637C202.652 769.376 202.66 769.708 202.66 770.345V772.824H201.605V765.288C201.605 764.964 201.602 764.695 201.594 764.48C201.59 764.261 201.582 764.099 201.57 763.994H202.59C202.594 764.009 202.6 764.085 202.607 764.222C202.619 764.359 202.629 764.507 202.637 764.667C202.645 764.824 202.648 764.939 202.648 765.013H202.672C202.859 764.622 203.107 764.337 203.416 764.158C203.725 763.974 204.131 763.882 204.635 763.882C205.416 763.882 206 764.144 206.387 764.667C206.773 765.191 206.967 766.013 206.967 767.134ZM205.859 767.158C205.859 766.275 205.74 765.644 205.502 765.265C205.264 764.886 204.885 764.697 204.365 764.697C203.787 764.697 203.357 764.898 203.076 765.3C202.799 765.699 202.66 766.345 202.66 767.24C202.66 768.072 202.793 768.685 203.059 769.079C203.324 769.474 203.756 769.671 204.354 769.671C204.877 769.671 205.258 769.48 205.496 769.097C205.738 768.71 205.859 768.064 205.859 767.158ZM209.902 770.451C209.266 770.451 208.787 770.283 208.467 769.947C208.146 769.611 207.986 769.15 207.986 768.564C207.986 767.908 208.201 767.404 208.631 767.052C209.064 766.701 209.762 766.513 210.723 766.49L212.146 766.466V766.12C212.146 765.605 212.037 765.236 211.818 765.013C211.6 764.79 211.256 764.679 210.787 764.679C210.314 764.679 209.971 764.759 209.756 764.919C209.541 765.079 209.412 765.335 209.369 765.687L208.268 765.587C208.447 764.447 209.295 763.876 210.811 763.876C211.607 763.876 212.207 764.06 212.609 764.427C213.012 764.79 213.213 765.318 213.213 766.009V768.74C213.213 769.052 213.254 769.288 213.336 769.449C213.418 769.605 213.574 769.683 213.805 769.683C213.914 769.683 214.029 769.669 214.15 769.642V770.298C214.018 770.329 213.883 770.353 213.746 770.369C213.609 770.384 213.473 770.392 213.336 770.392C212.945 770.392 212.66 770.29 212.48 770.087C212.305 769.88 212.205 769.558 212.182 769.12H212.146C211.877 769.605 211.562 769.949 211.203 770.152C210.848 770.351 210.414 770.451 209.902 770.451ZM212.146 767.204L210.992 767.228C210.5 767.232 210.125 767.283 209.867 767.38C209.609 767.474 209.412 767.619 209.275 767.814C209.139 768.009 209.07 768.265 209.07 768.581C209.07 768.925 209.162 769.191 209.346 769.378C209.533 769.566 209.799 769.66 210.143 769.66C210.533 769.66 210.877 769.572 211.174 769.396C211.475 769.22 211.711 768.98 211.883 768.675C212.059 768.367 212.146 768.05 212.146 767.726V767.204ZM219.723 768.581C219.723 769.179 219.496 769.64 219.043 769.964C218.594 770.288 217.963 770.451 217.15 770.451C216.361 770.451 215.752 770.322 215.322 770.064C214.896 769.802 214.619 769.396 214.49 768.845L215.422 768.663C215.512 769.003 215.697 769.253 215.979 769.413C216.26 769.57 216.65 769.648 217.15 769.648C217.686 769.648 218.076 769.566 218.322 769.402C218.572 769.238 218.697 768.992 218.697 768.663C218.697 768.413 218.611 768.21 218.439 768.054C218.268 767.898 217.99 767.769 217.607 767.667C217.154 767.546 216.793 767.447 216.523 767.369C216.258 767.29 216.053 767.224 215.908 767.169C215.764 767.111 215.648 767.056 215.562 767.005C215.305 766.857 215.104 766.675 214.959 766.46C214.814 766.245 214.742 765.982 214.742 765.669C214.742 765.091 214.947 764.652 215.357 764.351C215.771 764.046 216.373 763.894 217.162 763.894C217.861 763.894 218.416 764.017 218.826 764.263C219.24 764.509 219.502 764.904 219.611 765.447L218.662 765.564C218.604 765.283 218.445 765.068 218.188 764.919C217.934 764.767 217.592 764.691 217.162 764.691C216.686 764.691 216.334 764.763 216.107 764.908C215.881 765.052 215.768 765.271 215.768 765.564C215.768 765.779 215.832 765.956 215.961 766.097C216.09 766.234 216.336 766.347 216.699 766.437C217.188 766.554 217.652 766.683 218.094 766.824C218.535 766.96 218.852 767.097 219.043 767.234C219.266 767.394 219.434 767.583 219.547 767.802C219.664 768.017 219.723 768.277 219.723 768.581ZM225.723 768.581C225.723 769.179 225.496 769.64 225.043 769.964C224.594 770.288 223.963 770.451 223.15 770.451C222.361 770.451 221.752 770.322 221.322 770.064C220.896 769.802 220.619 769.396 220.49 768.845L221.422 768.663C221.512 769.003 221.697 769.253 221.979 769.413C222.26 769.57 222.65 769.648 223.15 769.648C223.686 769.648 224.076 769.566 224.322 769.402C224.572 769.238 224.697 768.992 224.697 768.663C224.697 768.413 224.611 768.21 224.439 768.054C224.268 767.898 223.99 767.769 223.607 767.667C223.154 767.546 222.793 767.447 222.523 767.369C222.258 767.29 222.053 767.224 221.908 767.169C221.764 767.111 221.648 767.056 221.562 767.005C221.305 766.857 221.104 766.675 220.959 766.46C220.814 766.245 220.742 765.982 220.742 765.669C220.742 765.091 220.947 764.652 221.357 764.351C221.771 764.046 222.373 763.894 223.162 763.894C223.861 763.894 224.416 764.017 224.826 764.263C225.24 764.509 225.502 764.904 225.611 765.447L224.662 765.564C224.604 765.283 224.445 765.068 224.188 764.919C223.934 764.767 223.592 764.691 223.162 764.691C222.686 764.691 222.334 764.763 222.107 764.908C221.881 765.052 221.768 765.271 221.768 765.564C221.768 765.779 221.832 765.956 221.961 766.097C222.09 766.234 222.336 766.347 222.699 766.437C223.188 766.554 223.652 766.683 224.094 766.824C224.535 766.96 224.852 767.097 225.043 767.234C225.266 767.394 225.434 767.583 225.547 767.802C225.664 768.017 225.723 768.277 225.723 768.581ZM227.773 767.386C227.773 768.113 227.924 768.673 228.225 769.068C228.525 769.462 228.965 769.66 229.543 769.66C230 769.66 230.365 769.568 230.639 769.384C230.916 769.201 231.104 768.968 231.201 768.687L232.127 768.951C231.748 769.951 230.887 770.451 229.543 770.451C228.605 770.451 227.891 770.171 227.398 769.613C226.91 769.054 226.666 768.224 226.666 767.122C226.666 766.076 226.91 765.273 227.398 764.714C227.891 764.156 228.592 763.876 229.502 763.876C230.436 763.876 231.135 764.158 231.6 764.72C232.064 765.283 232.297 766.124 232.297 767.245V767.386H227.773ZM231.207 766.578C231.148 765.91 230.979 765.423 230.697 765.119C230.416 764.81 230.012 764.656 229.484 764.656C228.973 764.656 228.566 764.828 228.266 765.171C227.969 765.511 227.809 765.98 227.785 766.578H231.207ZM242.346 767.158C242.346 768.267 242.102 769.093 241.613 769.636C241.125 770.179 240.416 770.451 239.486 770.451C238.561 770.451 237.861 770.169 237.389 769.607C236.916 769.04 236.68 768.224 236.68 767.158C236.68 766.064 236.916 765.244 237.389 764.697C237.865 764.15 238.576 763.876 239.521 763.876C240.49 763.876 241.203 764.144 241.66 764.679C242.117 765.21 242.346 766.036 242.346 767.158ZM241.238 767.158C241.238 766.283 241.107 765.648 240.846 765.253C240.588 764.855 240.152 764.656 239.539 764.656C238.922 764.656 238.475 764.859 238.197 765.265C237.924 765.667 237.787 766.298 237.787 767.158C237.787 767.994 237.922 768.622 238.191 769.044C238.465 769.462 238.893 769.671 239.475 769.671C240.107 769.671 240.559 769.468 240.828 769.062C241.102 768.656 241.238 768.021 241.238 767.158ZM247.672 769.249C247.43 769.687 247.148 769.997 246.828 770.181C246.512 770.361 246.117 770.451 245.645 770.451C244.949 770.451 244.439 770.279 244.115 769.935C243.795 769.587 243.635 769.015 243.635 768.218V763.994H244.695V768.013C244.695 768.646 244.793 769.076 244.988 769.302C245.188 769.525 245.525 769.636 246.002 769.636C246.51 769.636 246.91 769.462 247.203 769.115C247.496 768.767 247.643 768.285 247.643 767.667V763.994H248.697V768.98C248.697 769.347 248.699 769.644 248.703 769.87C248.711 770.097 248.721 770.251 248.732 770.333H247.736C247.732 770.314 247.725 770.222 247.713 770.058C247.705 769.894 247.697 769.624 247.689 769.249H247.672ZM255.705 767.134C255.705 768.24 255.51 769.07 255.119 769.624C254.732 770.175 254.15 770.451 253.373 770.451C252.893 770.451 252.492 770.365 252.172 770.193C251.855 770.017 251.598 769.736 251.398 769.349H251.387C251.387 769.427 251.383 769.54 251.375 769.689C251.367 769.837 251.359 769.976 251.352 770.105C251.344 770.23 251.336 770.306 251.328 770.333H250.309C250.32 770.228 250.328 770.068 250.332 769.853C250.34 769.634 250.344 769.359 250.344 769.027V761.638H251.398V764.117C251.398 764.242 251.396 764.38 251.393 764.533C251.389 764.681 251.383 764.841 251.375 765.013H251.398C251.594 764.607 251.852 764.316 252.172 764.14C252.496 763.964 252.896 763.876 253.373 763.876C254.174 763.876 254.762 764.146 255.137 764.685C255.516 765.224 255.705 766.04 255.705 767.134ZM254.598 767.169C254.598 766.283 254.48 765.648 254.246 765.265C254.012 764.882 253.631 764.691 253.104 764.691C252.51 764.691 252.076 764.894 251.803 765.3C251.533 765.706 251.398 766.351 251.398 767.234C251.398 768.066 251.531 768.681 251.797 769.079C252.062 769.474 252.494 769.671 253.092 769.671C253.623 769.671 254.006 769.476 254.24 769.085C254.479 768.691 254.598 768.052 254.598 767.169ZM258.078 761.638V770.333H257.023V761.638H258.078ZM260.744 761.638V762.646H259.689V761.638H260.744ZM260.744 763.994V770.333H259.689V763.994H260.744ZM263.176 767.386C263.176 768.113 263.326 768.673 263.627 769.068C263.928 769.462 264.367 769.66 264.945 769.66C265.402 769.66 265.768 769.568 266.041 769.384C266.318 769.201 266.506 768.968 266.604 768.687L267.529 768.951C267.15 769.951 266.289 770.451 264.945 770.451C264.008 770.451 263.293 770.171 262.801 769.613C262.312 769.054 262.068 768.224 262.068 767.122C262.068 766.076 262.312 765.273 262.801 764.714C263.293 764.156 263.994 763.876 264.904 763.876C265.838 763.876 266.537 764.158 267.002 764.72C267.467 765.283 267.699 766.124 267.699 767.245V767.386H263.176ZM266.609 766.578C266.551 765.91 266.381 765.423 266.1 765.119C265.818 764.81 265.414 764.656 264.887 764.656C264.375 764.656 263.969 764.828 263.668 765.171C263.371 765.511 263.211 765.98 263.188 766.578H266.609ZM266.621 761.667L264.688 763.296H264.137V763.179L265.408 761.497H266.621V761.667ZM277.807 764.286C277.807 764.728 277.711 765.103 277.52 765.411C277.332 765.72 277 766.05 276.523 766.402L276.055 766.747C275.5 767.146 275.221 767.605 275.217 768.124H274.191C274.203 767.765 274.271 767.462 274.396 767.216C274.525 766.97 274.688 766.761 274.883 766.589C275.078 766.413 275.279 766.251 275.486 766.103C275.709 765.943 275.916 765.785 276.107 765.628C276.299 765.472 276.451 765.292 276.564 765.089C276.682 764.886 276.74 764.634 276.74 764.333C276.74 763.888 276.588 763.536 276.283 763.279C275.982 763.021 275.559 762.892 275.012 762.892C274.465 762.892 274.031 763.029 273.711 763.302C273.391 763.576 273.203 763.951 273.148 764.427L272.07 764.357C272.172 763.583 272.477 762.99 272.984 762.576C273.492 762.161 274.164 761.954 275 761.954C275.871 761.954 276.557 762.161 277.057 762.576C277.557 762.986 277.807 763.556 277.807 764.286ZM275.287 769.156V770.333H274.145V769.156H275.287Z" fill="#BAA1A7"/>
</g>
<defs>
<filter id="filter0_dd_1_118" x="170" y="190" width="104" height="104" filterUnits="userSpaceOnUse" color-interpolation-filters="sRGB">
<feFlood flood-opacity="0" result="BackgroundImageFix"/>
<feColorMatrix in="SourceAlpha" type="matrix" values="0 0 0 0 0 0 0 0 0 0 0 0 0 0 0 0 0 0 127 0" result="hardAlpha"/>
<feMorphology radius="4" operator="erode" in="SourceAlpha" result="effect1_dropShadow_1_118"/>
<feOffset dy="4"/>
<feGaussianBlur stdDeviation="3"/>
<feComposite in2="hardAlpha" operator="out"/>
<feColorMatrix type="matrix" values="0 0 0 0 0 0 0 0 0 0 0 0 0 0 0 0 0 0 0.1 0"/>
<feBlend mode="normal" in2="BackgroundImageFix" result="effect1_dropShadow_1_118"/>
<feColorMatrix in="SourceAlpha" type="matrix" values="0 0 0 0 0 0 0 0 0 0 0 0 0 0 0 0 0 0 127 0" result="hardAlpha"/>
<feMorphology radius="3" operator="erode" in="SourceAlpha" result="effect2_dropShadow_1_118"/>
<feOffset dy="10"/>
<feGaussianBlur stdDeviation="7.5"/>
<feComposite in2="hardAlpha" operator="out"/>
<feColorMatrix type="matrix" values="0 0 0 0 0 0 0 0 0 0 0 0 0 0 0 0 0 0 0.1 0"/>
<feBlend mode="normal" in2="effect1_dropShadow_1_118" result="effect2_dropShadow_1_118"/>
<feBlend mode="normal" in="SourceGraphic" in2="effect2_dropShadow_1_118" result="shape"/>
</filter>
<filter id="filter1_dd_1_118" x="2" y="388" width="438" height="445" filterUnits="userSpaceOnUse" color-interpolation-filters="sRGB">
<feFlood flood-opacity="0" result="BackgroundImageFix"/>
<feColorMatrix in="SourceAlpha" type="matrix" values="0 0 0 0 0 0 0 0 0 0 0 0 0 0 0 0 0 0 127 0" result="hardAlpha"/>
<feMorphology radius="6" operator="erode" in="SourceAlpha" result="effect1_dropShadow_1_118"/>
<feOffset dy="8"/>
<feGaussianBlur stdDeviation="5"/>
<feComposite in2="hardAlpha" operator="out"/>
<feColorMatrix type="matrix" values="0 0 0 0 0 0 0 0 0 0 0 0 0 0 0 0 0 0 0.1 0"/>
<feBlend mode="normal" in2="BackgroundImageFix" result="effect1_dropShadow_1_118"/>
<feColorMatrix in="SourceAlpha" type="matrix" values="0 0 0 0 0 0 0 0 0 0 0 0 0 0 0 0 0 0 127 0" result="hardAlpha"/>
<feMorphology radius="5" operator="erode" in="SourceAlpha" result="effect2_dropShadow_1_118"/>
<feOffset dy="20"/>
<feGaussianBlur stdDeviation="12.5"/>
<feComposite in2="hardAlpha" operator="out"/>
<feColorMatrix type="matrix" values="0 0 0 0 0 0 0 0 0 0 0 0 0 0 0 0 0 0 0.1 0"/>
<feBlend mode="normal" in2="effect1_dropShadow_1_118" result="effect2_dropShadow_1_118"/>
<feBlend mode="normal" in="SourceGraphic" in2="effect2_dropShadow_1_118" result="shape"/>
</filter>
<filter id="filter2_dd_1_118" x="46" y="579" width="347" height="58" filterUnits="userSpaceOnUse" color-interpolation-filters="sRGB">
<feFlood flood-opacity="0" result="BackgroundImageFix"/>
<feColorMatrix in="SourceAlpha" type="matrix" values="0 0 0 0 0 0 0 0 0 0 0 0 0 0 0 0 0 0 127 0" result="hardAlpha"/>
<feMorphology radius="2" operator="erode" in="SourceAlpha" result="effect1_dropShadow_1_118"/>
<feOffset dy="2"/>
<feGaussianBlur stdDeviation="2"/>
<feComposite in2="hardAlpha" operator="out"/>
<feColorMatrix type="matrix" values="0 0 0 0 0 0 0 0 0 0 0 0 0 0 0 0 0 0 0.1 0"/>
<feBlend mode="normal" in2="BackgroundImageFix" result="effect1_dropShadow_1_118"/>
<feColorMatrix in="SourceAlpha" type="matrix" values="0 0 0 0 0 0 0 0 0 0 0 0 0 0 0 0 0 0 127 0" result="hardAlpha"/>
<feMorphology radius="1" operator="erode" in="SourceAlpha" result="effect2_dropShadow_1_118"/>
<feOffset dy="4"/>
<feGaussianBlur stdDeviation="3"/>
<feComposite in2="hardAlpha" operator="out"/>
<feColorMatrix type="matrix" values="0 0 0 0 0 0 0 0 0 0 0 0 0 0 0 0 0 0 0.1 0"/>
<feBlend mode="normal" in2="effect1_dropShadow_1_118" result="effect2_dropShadow_1_118"/>
<feBlend mode="normal" in="SourceGraphic" in2="effect2_dropShadow_1_118" result="shape"/>
</filter>
<linearGradient id="paint0_linear_1_118" x1="220" y1="0" x2="220" y2="962" gradientUnits="userSpaceOnUse">
<stop stop-color="#EDD2E0"/>
<stop offset="0.5" stop-color="#EDBBB4"/>
<stop offset="1" stop-color="#DBABBE"/>
</linearGradient>
</defs>
</svg>
