<svg width="315" height="116" viewBox="0 0 315 116" fill="none" xmlns="http://www.w3.org/2000/svg">
<ellipse cx="37.626" cy="64.7214" rx="1.75238" ry="1.75237" fill="black"/>
<line x1="24" y1="57.5" x2="93" y2="57.5" stroke="black"/>
<rect x="1" y="1" width="114" height="114" stroke="#202938" stroke-width="2"/>
<rect x="8.73334" y="8.7334" width="99.3067" height="99.3067" stroke="#A3A3A3" stroke-width="2"/>
<line x1="139.5" y1="108.655" x2="139.5" y2="7.34503" stroke="#A3A3A3"/>
<path d="M168.32 61C167.684 61 167.366 60.682 167.366 60.046V38.752C167.366 38.116 167.684 37.798 168.32 37.798H181.298C181.598 37.798 181.826 37.882 181.982 38.05C182.15 38.206 182.234 38.44 182.234 38.752C182.234 39.376 181.922 39.688 181.298 39.688H169.256V48.31H177.464C178.1 48.31 178.418 48.622 178.418 49.246C178.418 49.882 178.1 50.2 177.464 50.2H169.256V60.046C169.256 60.682 168.944 61 168.32 61ZM183.071 60.91C182.495 60.658 182.321 60.238 182.549 59.65L191.477 38.536C191.669 38.044 192.023 37.798 192.539 37.798H192.647C193.139 37.81 193.487 38.056 193.691 38.536L202.619 59.65C202.859 60.238 202.691 60.658 202.115 60.91C201.527 61.15 201.119 60.982 200.891 60.406L198.497 54.736H186.707L184.313 60.406C184.073 60.982 183.659 61.15 183.071 60.91ZM187.481 52.846H197.705L192.593 40.786L187.481 52.846ZM210.117 61C209.481 61 209.163 60.682 209.163 60.046V38.752C209.163 38.116 209.481 37.798 210.117 37.798C210.453 37.798 210.777 37.984 211.089 38.356L226.335 57.94H225.903V38.752C225.903 38.116 226.221 37.798 226.857 37.798C227.481 37.798 227.793 38.116 227.793 38.752V60.046C227.793 60.682 227.481 61 226.857 61C226.509 61 226.185 60.814 225.885 60.442L210.621 40.858H211.053V60.046C211.053 60.682 210.741 61 210.117 61ZM243.528 61.018C243.24 61.018 243.006 60.934 242.826 60.766C242.658 60.598 242.574 60.37 242.574 60.082V39.67H234.924C234.636 39.67 234.402 39.586 234.222 39.418C234.054 39.25 233.97 39.022 233.97 38.734C233.97 38.446 234.054 38.218 234.222 38.05C234.402 37.87 234.636 37.78 234.924 37.78H252.132C252.42 37.78 252.648 37.87 252.816 38.05C252.984 38.218 253.068 38.446 253.068 38.734C253.068 39.022 252.984 39.25 252.816 39.418C252.648 39.586 252.42 39.67 252.132 39.67H244.464V60.082C244.464 60.358 244.374 60.586 244.194 60.766C244.026 60.934 243.804 61.018 243.528 61.018ZM260.21 61C259.91 61 259.676 60.916 259.508 60.748C259.34 60.58 259.256 60.346 259.256 60.046V38.734C259.256 38.434 259.34 38.2 259.508 38.032C259.676 37.864 259.91 37.78 260.21 37.78C260.498 37.78 260.726 37.864 260.894 38.032C261.062 38.2 261.146 38.434 261.146 38.734V60.046C261.146 60.346 261.062 60.58 260.894 60.748C260.726 60.916 260.498 61 260.21 61ZM270.983 61C270.347 61 270.029 60.682 270.029 60.046V38.752C270.029 38.116 270.347 37.798 270.983 37.798C271.319 37.798 271.643 37.984 271.955 38.356L287.201 57.94H286.769V38.752C286.769 38.116 287.087 37.798 287.723 37.798C288.347 37.798 288.659 38.116 288.659 38.752V60.046C288.659 60.682 288.347 61 287.723 61C287.375 61 287.051 60.814 286.751 60.442L271.487 40.858H271.919V60.046C271.919 60.682 271.607 61 270.983 61ZM298.491 61C297.855 61 297.537 60.682 297.537 60.046V38.752C297.537 38.116 297.855 37.798 298.491 37.798H311.973C312.609 37.798 312.927 38.116 312.927 38.752C312.927 39.376 312.609 39.688 311.973 39.688H299.427V48.31H307.725C308.361 48.31 308.679 48.622 308.679 49.246C308.679 49.882 308.361 50.2 307.725 50.2H299.427V59.11H311.973C312.609 59.11 312.927 59.422 312.927 60.046C312.927 60.682 312.609 61 311.973 61H298.491ZM166.4 85C166.047 85 165.87 84.8233 165.87 84.47V72.64C165.87 72.2867 166.047 72.11 166.4 72.11H173.61C173.777 72.11 173.903 72.1567 173.99 72.25C174.083 72.3367 174.13 72.4667 174.13 72.64C174.13 72.9867 173.957 73.16 173.61 73.16H166.92V77.95H171.48C171.833 77.95 172.01 78.1233 172.01 78.47C172.01 78.8233 171.833 79 171.48 79H166.92V84.47C166.92 84.8233 166.747 85 166.4 85ZM177.737 85C177.57 85 177.44 84.9533 177.347 84.86C177.253 84.7667 177.207 84.6367 177.207 84.47V72.63C177.207 72.4633 177.253 72.3333 177.347 72.24C177.44 72.1467 177.57 72.1 177.737 72.1C177.897 72.1 178.023 72.1467 178.117 72.24C178.21 72.3333 178.257 72.4633 178.257 72.63V84.47C178.257 84.6367 178.21 84.7667 178.117 84.86C178.023 84.9533 177.897 85 177.737 85ZM187.092 85C185.645 85 184.589 84.6667 183.922 84C183.255 83.3333 182.922 82.2767 182.922 80.83V76.28C182.922 74.82 183.252 73.76 183.912 73.1C184.579 72.44 185.632 72.11 187.072 72.11H189.492C190.719 72.11 191.632 72.3667 192.232 72.88C192.832 73.3867 193.162 74.2033 193.222 75.33C193.242 75.51 193.205 75.6467 193.112 75.74C193.025 75.8333 192.895 75.88 192.722 75.88C192.389 75.88 192.205 75.7033 192.172 75.35C192.125 74.5233 191.899 73.9533 191.492 73.64C191.085 73.32 190.419 73.16 189.492 73.16H187.072C186.305 73.16 185.695 73.26 185.242 73.46C184.789 73.6533 184.462 73.98 184.262 74.44C184.069 74.8933 183.972 75.5067 183.972 76.28V80.83C183.972 81.6033 184.072 82.2167 184.272 82.67C184.472 83.1233 184.799 83.45 185.252 83.65C185.705 83.85 186.319 83.95 187.092 83.95H189.492C190.172 83.95 190.709 83.8667 191.102 83.7C191.502 83.5333 191.785 83.2533 191.952 82.86C192.119 82.4667 192.202 81.9233 192.202 81.23V79.98L190.012 79.96C189.665 79.96 189.492 79.7833 189.492 79.43C189.492 79.0833 189.665 78.91 190.012 78.91L192.732 78.93C193.079 78.93 193.252 79.1033 193.252 79.45V81.23C193.252 82.55 192.955 83.51 192.362 84.11C191.769 84.7033 190.812 85 189.492 85H187.092ZM201.782 85C200.336 85 199.279 84.6667 198.612 84C197.946 83.3333 197.612 82.2767 197.612 80.83V72.64C197.612 72.48 197.659 72.3533 197.752 72.26C197.852 72.16 197.982 72.11 198.142 72.11C198.302 72.11 198.429 72.16 198.522 72.26C198.616 72.3533 198.662 72.48 198.662 72.64V80.83C198.662 81.6033 198.762 82.2167 198.962 82.67C199.162 83.1233 199.489 83.45 199.942 83.65C200.396 83.85 201.009 83.95 201.782 83.95H204.182C204.949 83.95 205.559 83.85 206.012 83.65C206.466 83.45 206.792 83.1233 206.992 82.67C207.192 82.2167 207.292 81.6033 207.292 80.83V72.64C207.292 72.48 207.339 72.3533 207.432 72.26C207.532 72.16 207.662 72.11 207.822 72.11C207.982 72.11 208.109 72.16 208.202 72.26C208.296 72.3533 208.342 72.48 208.342 72.64V80.83C208.342 82.2767 208.009 83.3333 207.342 84C206.682 84.6667 205.629 85 204.182 85H201.782ZM213.72 85C213.366 85 213.19 84.8233 213.19 84.47V72.64C213.19 72.2867 213.366 72.11 213.72 72.11H221.21C221.563 72.11 221.74 72.2867 221.74 72.64C221.74 72.9867 221.563 73.16 221.21 73.16H214.24V77.95H218.85C219.203 77.95 219.38 78.1233 219.38 78.47C219.38 78.8233 219.203 79 218.85 79H214.24V83.95H221.21C221.563 83.95 221.74 84.1233 221.74 84.47C221.74 84.8233 221.563 85 221.21 85H213.72ZM229.41 85.01C229.25 85.01 229.12 84.9633 229.02 84.87C228.927 84.7767 228.88 84.65 228.88 84.49V73.15H224.63C224.47 73.15 224.34 73.1033 224.24 73.01C224.147 72.9167 224.1 72.79 224.1 72.63C224.1 72.47 224.147 72.3433 224.24 72.25C224.34 72.15 224.47 72.1 224.63 72.1H234.19C234.35 72.1 234.477 72.15 234.57 72.25C234.664 72.3433 234.71 72.47 234.71 72.63C234.71 72.79 234.664 72.9167 234.57 73.01C234.477 73.1033 234.35 73.15 234.19 73.15H229.93V84.49C229.93 84.6433 229.88 84.77 229.78 84.87C229.687 84.9633 229.564 85.01 229.41 85.01Z" fill="black"/>
</svg>
